<svg xmlns="http://www.w3.org/2000/svg" width="30" height="30.551" viewBox="0 0 30 30.551">
  <g id="chat" transform="translate(-3.366)">
    <g id="Group_21" data-name="Group 21" transform="translate(3.366)">
      <path id="Path_65" data-name="Path 65" d="M18.436,0h-.049A14.988,14.988,0,0,0,6.632,24.327L4.446,29.411a.815.815,0,0,0,.426,1.072.832.832,0,0,0,.467.057l8.014-1.408A14.442,14.442,0,0,0,18.346,30a15,15,0,0,0,.09-30ZM13.3,12h4.42a.819.819,0,0,1,0,1.637H13.3A.819.819,0,0,1,13.3,12Zm10.15,5.73H13.3a.819.819,0,0,1,0-1.637h10.15a.819.819,0,1,1,0,1.637Z" transform="translate(-3.366)" fill="#fff"/>
    </g>
  </g>
</svg>
