<svg xmlns="http://www.w3.org/2000/svg" width="23" height="23.001" viewBox="0 0 23 23.001">
  <path id="comm-16_chat" d="M11.5,23a11.456,11.456,0,0,1-6.521-2.056L.5,22.433a.376.376,0,0,1-.432-.14.37.37,0,0,1-.051-.343L1.58,17.272A11.483,11.483,0,1,1,11.5,23Zm3.822-12.652A1.152,1.152,0,1,0,16.475,11.5,1.15,1.15,0,0,0,15.322,10.348Zm-3.818,0A1.152,1.152,0,1,0,12.652,11.5,1.153,1.153,0,0,0,11.5,10.348Zm-3.85,0A1.152,1.152,0,1,0,8.807,11.5,1.15,1.15,0,0,0,7.654,10.348Z" transform="translate(0 0.001)" fill="#761c33"/>
</svg>
