<svg xmlns="http://www.w3.org/2000/svg" width="15.5" height="16.772" viewBox="0 0 15.5 16.772">
  <g id="Delete" transform="translate(0.75 0.75)">
    <path id="Stroke_1" data-name="Stroke 1" d="M11.716,0s-.448,5.56-.708,7.9A1.847,1.847,0,0,1,9.061,9.7c-2.154.039-4.31.041-6.463,0A1.828,1.828,0,0,1,.708,7.908C.446,5.545,0,0,0,0" transform="translate(1.142 5.546)" fill="none" stroke="#9d9d9d" stroke-linecap="round" stroke-linejoin="round" stroke-miterlimit="10" stroke-width="1.5"/>
    <path id="Stroke_3" data-name="Stroke 3" d="M14,.413H0" transform="translate(0 2.468)" fill="none" stroke="#9d9d9d" stroke-linecap="round" stroke-linejoin="round" stroke-miterlimit="10" stroke-width="1.5"/>
    <path id="Stroke_5" data-name="Stroke 5" d="M8.6,2.88A1.36,1.36,0,0,1,7.272,1.787l-.2-1A1.056,1.056,0,0,0,6.05,0H2.555A1.056,1.056,0,0,0,1.534.783l-.2,1A1.36,1.36,0,0,1,0,2.88" transform="translate(2.697)" fill="none" stroke="#9d9d9d" stroke-linecap="round" stroke-linejoin="round" stroke-miterlimit="10" stroke-width="1.5"/>
  </g>
</svg>
