<svg xmlns="http://www.w3.org/2000/svg" width="40" height="48" viewBox="0 0 40 48">
  <g id="_014-skill_development" data-name="014-skill development" transform="translate(-7 -2)">
    <path id="Path_1" data-name="Path 1" d="M31.6,9.4V3L26,6.2Z" transform="translate(-3.8 -0.2)" fill="#f2be22"/>
    <g id="Group_2" data-name="Group 2" transform="translate(7 2)">
      <path id="Path_2" data-name="Path 2" d="M51.409,9.2a7.208,7.208,0,0,0-7.2-7.2c-9.552.4-9.549,14.006,0,14.4a7.208,7.208,0,0,0,7.2-7.2Z" transform="translate(-13.009 -2)" fill="#761c33"/>
      <path id="Path_3" data-name="Path 3" d="M47.607,16.6H38.15a5.924,5.924,0,0,1-1.677-.927,6.64,6.64,0,0,1-1.748-2.9,2.476,2.476,0,0,0-1.518-1.626V3.8a.8.8,0,1,0-1.6,0v7.346c-3.3,1.338-.706,5.71,1.533,7.982a11.267,11.267,0,0,0,4.066,2.51V27a2.4,2.4,0,0,0,1.6,2.253V34.2c0,.049.012.1.015.144A2.4,2.4,0,0,0,37.207,36.6V47.8a2.407,2.407,0,0,0,2.4,2.4h6.4a2.407,2.407,0,0,0,2.4-2.4V36.6a2.4,2.4,0,0,0-1.615-2.256c0-.049.015-.095.015-.144V29.26a2.412,2.412,0,0,0,1.507-1.637A2.408,2.408,0,0,0,51.607,25.4s0-4.8,0-4.8a4,4,0,0,0-4-4Zm-2.4,17.6a.8.8,0,0,1-.8.8h-3.2a.8.8,0,0,1-.8-.8V29.4h4.8Zm4.8-8.8a.8.8,0,0,1-1.6,0V22.2a.8.8,0,0,0-1.6,0V27a.8.8,0,0,1-.8.8h-6.4a.8.8,0,0,1-.8-.8V21.059a.813.813,0,0,0-.59-.772,9.741,9.741,0,0,1-3.966-2.311c-1.322-1.228-3.769-5.049-1.968-5.366a.85.85,0,0,1,.907.62,8.234,8.234,0,0,0,2.172,3.6A6.163,6.163,0,0,0,38.007,18.2L48,18.234A2.483,2.483,0,0,1,50.007,20.6v4.8Z" transform="translate(-11.608 -2.2)" fill="#761c33"/>
      <rect id="Rectangle_2" data-name="Rectangle 2" width="11.2" height="12" rx="3" transform="translate(12.8 36)" fill="#761c33"/>
      <rect id="Rectangle_3" data-name="Rectangle 3" width="11.2" height="6.4" rx="3" transform="translate(0 41.6)" fill="#761c33"/>
    </g>
    <path id="Path_4" data-name="Path 4" d="M12.8,47.4a.805.805,0,0,1-.655-1.259l5.6-8a.8.8,0,0,1,1.052-.236l4.92,2.812,4.4-7.329a.805.805,0,0,1,1.47.255l.8,4a.8.8,0,0,1-1.569.314l-.395-1.971-3.735,6.226A.8.8,0,0,1,23.6,42.5l-4.966-2.837-5.181,7.4a.8.8,0,0,1-.656.341Z" transform="translate(-1 -6.202)" fill="#f2be22"/>
    <path id="Path_5" data-name="Path 5" d="M27.8,35.4a.8.8,0,0,1-.156-1.584l4-.8a.8.8,0,0,1,.314,1.569l-4,.8a.783.783,0,0,1-.158.016Z" transform="translate(-4.003 -6.2)" fill="#f2be22"/>
  </g>
</svg>
