<svg xmlns="http://www.w3.org/2000/svg" width="38" height="40" viewBox="0 0 38 40">
  <g id="_016-strategy" data-name="016-strategy" transform="translate(-3.5 -2)">
    <path id="Path_29" data-name="Path 29" d="M25.5,18.015a6,6,0,1,1,6-6A6.007,6.007,0,0,1,25.5,18.015Z" transform="translate(-5.334 -1.349)" fill="#f2be22"/>
    <g id="Group_10" data-name="Group 10" transform="translate(3.5 2)">
      <path id="Path_30" data-name="Path 30" d="M41.831,34a.665.665,0,0,1-.471-.2l-4.667-4.667a.667.667,0,0,1,.943-.943L42.3,32.859A.671.671,0,0,1,41.831,34Z" transform="translate(-14.498 -10.664)" fill="#761c33"/>
      <path id="Path_31" data-name="Path 31" d="M37.168,34A.671.671,0,0,1,36.7,32.86l4.667-4.667a.667.667,0,0,1,.943.943L37.639,33.8a.665.665,0,0,1-.471.2Z" transform="translate(-14.501 -10.664)" fill="#761c33"/>
      <path id="Path_32" data-name="Path 32" d="M27.834,44a3.333,3.333,0,1,0,3.333,3.333A3.337,3.337,0,0,0,27.834,44Z" transform="translate(-10.5 -16)" fill="#761c33"/>
      <path id="Path_33" data-name="Path 33" d="M43.834,8a3.333,3.333,0,1,0,3.333,3.333A3.337,3.337,0,0,0,43.834,8Z" transform="translate(-15.833 -4)" fill="#761c33"/>
      <path id="Path_34" data-name="Path 34" d="M37.5,2h-24a4,4,0,0,0-4,4v7.488a6,6,0,0,0,0,11.691v.155H6.833A3.337,3.337,0,0,0,3.5,28.667v4A2.007,2.007,0,0,0,6.244,34.52,2.01,2.01,0,0,0,7.5,35.884V40a2,2,0,0,0,2,2h2.667a2,2,0,0,0,1.877-1.333H37.5a4,4,0,0,0,4-4V6A4,4,0,0,0,37.5,2ZM6.833,29.333A.667.667,0,0,0,6.167,30v2.667a.667.667,0,0,1-1.333,0v-4A2.069,2.069,0,0,1,6.507,26.7l8.326-.028a5.131,5.131,0,0,0,2.2-1.146,6.862,6.862,0,0,0,1.81-3,.708.708,0,0,1,.756-.516c1.507.266-.551,3.462-1.64,4.472a8.118,8.118,0,0,1-3.3,1.926.677.677,0,0,0-.491.643V34a.667.667,0,0,1-.667.667H8.167A.667.667,0,0,1,7.5,34V30a.667.667,0,0,0-.667-.667Zm33.333,7.333A2.669,2.669,0,0,1,37.5,39.333H14.167V35.877A2,2,0,0,0,15.5,34V29.532a9.675,9.675,0,0,0,5.922-6.312,1.973,1.973,0,0,0-.589-2.031V16A.667.667,0,0,0,19.5,16v4.671a2.041,2.041,0,0,0-1.932,1.478,5.533,5.533,0,0,1-1.456,2.413,4.936,4.936,0,0,1-1.4.772H10.833a6,6,0,0,0,0-12V6A2.669,2.669,0,0,1,13.5,3.333h24A2.669,2.669,0,0,1,40.167,6Z" transform="translate(-3.5 -2)" fill="#761c33"/>
    </g>
    <path id="Path_35" data-name="Path 35" d="M49.225,22.6a.669.669,0,0,0,.247-1.286L46.139,19.98a.691.691,0,0,0-.9.51l-.667,4a.667.667,0,0,0,1.315.219l.473-2.84a11.146,11.146,0,0,1-8.731,14.8,1.335,1.335,0,1,0,.576,2.6c7.673-2.083,11.966-10.42,8.433-17.659.081.017,2.6,1.087,2.592.985Z" transform="translate(-11 -5.98)" fill="#f2be22"/>
    <path id="Path_36" data-name="Path 36" d="M26,16.164a.665.665,0,0,1-.471-.2l-1.333-1.333a.667.667,0,0,1,.943-.943l.862.862,2.862-2.862a.667.667,0,0,1,.943.943l-3.333,3.333a.665.665,0,0,1-.471.2Z" transform="translate(-6.831 -3.164)" fill="#761c33"/>
  </g>
</svg>
