<svg xmlns="http://www.w3.org/2000/svg" width="42.135" height="40" viewBox="0 0 42.135 40">
  <g id="_017-success" data-name="017-success" transform="translate(-1.979 -3.5)">
    <path id="Path_6" data-name="Path 6" d="M32.828,24.93c8.746.223,11.529-7.082,11.269-11.965a.7.7,0,0,0-.7-.658H38.465c.066-1.4-.581-2.8-2.165-2.807H9.792c-1.574.005-2.238,1.409-2.165,2.807H2.7a.7.7,0,0,0-.7.658C1.736,17.872,4.532,25.152,13.264,24.93a15.328,15.328,0,0,0,6.273,3.109V33.85a2.32,2.32,0,0,1-2.317,2.317,3.18,3.18,0,0,0-2.754,4.912H13.222a2.105,2.105,0,0,0,0,4.211H32.871a2.105,2.105,0,0,0,0-4.211H31.607a3.156,3.156,0,0,0-2.6-4.912,2.33,2.33,0,0,1-2.456-2.317V28.039a15.328,15.328,0,0,0,6.273-3.109Zm5.626-11.22H42.7c-.074,4.236-2.352,9.242-8.291,9.734A15.414,15.414,0,0,0,38.455,13.711Zm-35.06,0H7.638a15.414,15.414,0,0,0,4.048,9.734C5.742,22.953,3.468,17.934,3.4,13.711ZM33.573,43.184a.7.7,0,0,1-.7.7H13.222a.7.7,0,1,1,0-1.4H32.871A.7.7,0,0,1,33.573,43.184Z" transform="translate(0 -1.789)" fill="#761c33"/>
    <g id="Group_3" data-name="Group 3" transform="translate(11.818 3.5)">
      <path id="Path_7" data-name="Path 7" d="M45.614,7.009c-1.551,0-2.807,1.57-2.807,3.509,0-1.939-1.256-3.509-2.807-3.509,1.551,0,2.807-1.57,2.807-3.509C42.807,5.439,44.063,7.009,45.614,7.009Z" transform="translate(-23.158 -3.5)" fill="#f2be22"/>
      <path id="Path_8" data-name="Path 8" d="M21.614,34.009c-1.551,0-2.807,1.57-2.807,3.509,0-1.939-1.256-3.509-2.807-3.509,1.551,0,2.807-1.57,2.807-3.509C18.807,32.439,20.063,34.009,21.614,34.009Z" transform="translate(-16 -11.553)" fill="#f2be22"/>
      <path id="Path_9" data-name="Path 9" d="M48.614,44.009c-1.551,0-2.807,1.57-2.807,3.509,0-1.939-1.256-3.509-2.807-3.509,1.551,0,2.807-1.57,2.807-3.509C45.807,42.439,47.063,44.009,48.614,44.009Z" transform="translate(-24.053 -14.535)" fill="#f2be22"/>
      <path id="Path_10" data-name="Path 10" d="M29.562,24.6l3.545,1.261L33,22.1,35.3,19.119l-3.609-1.064-2.127-3.1-2.127,3.1-3.609,1.064L26.12,22.1l-.1,3.761Z" transform="translate(-18.334 -6.915)" fill="#f2be22"/>
      <path id="Path_11" data-name="Path 11" d="M32.809,26.274a.7.7,0,0,1-.235-.04l-3.31-1.177-3.31,1.177a.7.7,0,0,1-.937-.681l.1-3.512L22.97,19.256a.7.7,0,0,1,.358-1.1l3.37-.993,1.986-2.9a.73.73,0,0,1,1.158,0l1.986,2.9,3.37.993a.7.7,0,0,1,.358,1.1l-2.142,2.785.1,3.512a.706.706,0,0,1-.7.721ZM29.264,23.61c-.023-.093,2.747.95,2.816.959L32,21.83a.7.7,0,0,1,.145-.447l1.67-2.171-2.627-.774a.7.7,0,0,1-.381-.276L29.264,15.9l-1.548,2.259a.7.7,0,0,1-.381.276l-2.627.774,1.67,2.171a.7.7,0,0,1,.145.447l-.075,2.738c.073-.01,2.834-1.05,2.816-.959Z" transform="translate(-18.035 -6.625)" fill="#f2be22"/>
    </g>
  </g>
</svg>
