<svg xmlns="http://www.w3.org/2000/svg" width="40" height="42.802" viewBox="0 0 40 42.802">
  <g id="_011-log_file" data-name="011-log file" transform="translate(-4 -2.039)">
    <g id="Group_11" data-name="Group 11" transform="translate(4 10.555)">
      <path id="Path_37" data-name="Path 37" d="M35.429,39.676V25.6A3.349,3.349,0,0,1,34,25.909V39.676H12.571a.714.714,0,0,0,0,1.429,2.857,2.857,0,1,1-2.857,2.857V16.818a2.944,2.944,0,0,0-.382-1.429h14a3.663,3.663,0,0,1,.354-1.429H6.857A2.86,2.86,0,0,0,4,16.818V27.533A2.86,2.86,0,0,0,6.857,30.39H8.286V43.961a4.29,4.29,0,0,0,4.286,4.286H35.429A4.286,4.286,0,0,0,35.429,39.676Z" transform="translate(-4 -13.961)" fill="#761c33"/>
      <path id="Path_38" data-name="Path 38" d="M15.718,22.39h1.429a.714.714,0,0,0,0-1.429H15.718A.714.714,0,0,0,15.718,22.39Z" transform="translate(-7.147 -15.961)" fill="#761c33"/>
      <path id="Path_39" data-name="Path 39" d="M28.939,20.961h-7.22a.714.714,0,0,0,0,1.429h7.648a3.585,3.585,0,0,1-.427-1.429Z" transform="translate(-8.861 -15.961)" fill="#761c33"/>
      <path id="Path_40" data-name="Path 40" d="M15.718,28.39h1.429a.714.714,0,0,0,0-1.429H15.718A.714.714,0,0,0,15.718,28.39Z" transform="translate(-7.147 -17.676)" fill="#761c33"/>
      <path id="Path_41" data-name="Path 41" d="M31.653,26.961H21.718a.714.714,0,0,0,0,1.429H32.741A3.071,3.071,0,0,1,31.653,26.961Z" transform="translate(-8.861 -17.676)" fill="#761c33"/>
      <path id="Path_42" data-name="Path 42" d="M15.718,34.39h1.429a.714.714,0,0,0,0-1.429H15.718A.714.714,0,0,0,15.718,34.39Z" transform="translate(-7.147 -19.39)" fill="#761c33"/>
      <path id="Path_43" data-name="Path 43" d="M21.718,34.39H36a.714.714,0,0,0,0-1.429H21.718a.714.714,0,0,0,0,1.429Z" transform="translate(-8.861 -19.39)" fill="#761c33"/>
      <path id="Path_44" data-name="Path 44" d="M15.718,40.39h1.429a.714.714,0,0,0,0-1.429H15.718A.714.714,0,0,0,15.718,40.39Z" transform="translate(-7.147 -21.104)" fill="#761c33"/>
      <path id="Path_45" data-name="Path 45" d="M21.718,40.39H36a.714.714,0,0,0,0-1.429H21.718a.714.714,0,0,0,0,1.429Z" transform="translate(-8.861 -21.104)" fill="#761c33"/>
      <path id="Path_46" data-name="Path 46" d="M15.718,46.39h1.429a.714.714,0,0,0,0-1.429H15.718A.714.714,0,0,0,15.718,46.39Z" transform="translate(-7.147 -22.818)" fill="#761c33"/>
      <path id="Path_47" data-name="Path 47" d="M21.718,46.39H36a.714.714,0,0,0,0-1.429H21.718a.714.714,0,0,0,0,1.429Z" transform="translate(-8.861 -22.818)" fill="#761c33"/>
    </g>
    <path id="Path_48" data-name="Path 48" d="M50.17,13.527a8.586,8.586,0,0,1-8.586,8.586c-11.389-.452-11.386-16.722,0-17.172A8.586,8.586,0,0,1,50.17,13.527Z" transform="translate(-8.298 -0.829)" fill="#f2be22"/>
    <path id="Path_49" data-name="Path 49" d="M44.379,17.909a1.571,1.571,0,0,1,0-3.141A1.571,1.571,0,0,1,44.379,17.909Zm0-2.094a.524.524,0,0,0,0,1.047A.524.524,0,0,0,44.379,15.815Z" transform="translate(-11.093 -3.637)" fill="#761c33"/>
    <path id="Path_50" data-name="Path 50" d="M44.79,8.04a.525.525,0,0,1-.525-.525V6.466a.525.525,0,1,1,1.05,0v1.05A.525.525,0,0,1,44.79,8.04Z" transform="translate(-11.504 -1.115)" fill="#761c33"/>
    <path id="Path_51" data-name="Path 51" d="M35.558,17.276h-1.05a.525.525,0,0,1,0-1.05h1.05a.525.525,0,0,1,0,1.05Z" transform="translate(-8.57 -4.054)" fill="#761c33"/>
    <path id="Path_52" data-name="Path 52" d="M44.79,27.142a.525.525,0,0,1-.525-.525v-1.05a.525.525,0,1,1,1.05,0v1.05A.525.525,0,0,1,44.79,27.142Z" transform="translate(-11.504 -6.573)" fill="#761c33"/>
    <path id="Path_53" data-name="Path 53" d="M54.66,17.276h-1.05a.525.525,0,0,1,0-1.05h1.05a.525.525,0,0,1,0,1.05Z" transform="translate(-14.027 -4.054)" fill="#761c33"/>
    <path id="Path_54" data-name="Path 54" d="M44.791,15.1a.523.523,0,0,1-.524-.524V10.909a.524.524,0,1,1,1.047,0v3.665A.523.523,0,0,1,44.791,15.1Z" transform="translate(-11.505 -2.385)" fill="#761c33"/>
    <path id="Path_55" data-name="Path 55" d="M47.407,19.9a.522.522,0,0,1-.37-.153l-2.618-2.618a.524.524,0,0,1,.74-.74L47.777,19a.527.527,0,0,1-.37.894Z" transform="translate(-11.503 -4.054)" fill="#761c33"/>
    <path id="Path_56" data-name="Path 56" d="M40.714,23.412A10.726,10.726,0,0,1,30,12.7c.588-14.214,20.842-14.21,21.429,0A10.726,10.726,0,0,1,40.714,23.412Zm0-20A9.3,9.3,0,0,0,31.429,12.7c.51,12.319,18.063,12.315,18.571,0a9.3,9.3,0,0,0-9.286-9.286Z" transform="translate(-7.429)" fill="#f2be22"/>
  </g>
</svg>
