<svg id="elearning" xmlns="http://www.w3.org/2000/svg" width="20" height="20" viewBox="0 0 20 20">
  <g id="Group_30" data-name="Group 30" transform="translate(4.766 16.484)">
    <g id="Group_29" data-name="Group 29">
      <path id="Path_73" data-name="Path 73" d="M131.375,423.172H130.2V422h-5.859v1.172h-1.172A1.172,1.172,0,0,0,122,424.344v.586a.586.586,0,0,0,.586.586h9.375a.586.586,0,0,0,.586-.586v-.586A1.172,1.172,0,0,0,131.375,423.172Z" transform="translate(-122 -422)" fill="#a8a8a8"/>
    </g>
  </g>
  <g id="Group_32" data-name="Group 32" transform="translate(4.766 3.506)">
    <g id="Group_31" data-name="Group 31">
      <path id="Path_74" data-name="Path 74" d="M122,89.967v6.6a6.015,6.015,0,0,1,4.688.793V91.006A4.873,4.873,0,0,0,122,89.967Z" transform="translate(-122 -89.745)" fill="#a8a8a8"/>
    </g>
  </g>
  <g id="Group_34" data-name="Group 34" transform="translate(10.625 3.506)">
    <g id="Group_33" data-name="Group 33">
      <path id="Path_75" data-name="Path 75" d="M272,91v6.357a6.02,6.02,0,0,1,4.688-.793v-6.6A4.872,4.872,0,0,0,272,91Z" transform="translate(-272 -89.742)" fill="#a8a8a8"/>
    </g>
  </g>
  <g id="Group_36" data-name="Group 36">
    <g id="Group_35" data-name="Group 35">
      <path id="Path_76" data-name="Path 76" d="M18.242,0H1.758A1.76,1.76,0,0,0,0,1.758v11.8a1.76,1.76,0,0,0,1.758,1.758H18.242A1.76,1.76,0,0,0,20,13.555V1.758A1.76,1.76,0,0,0,18.242,0ZM16.484,11.133a.586.586,0,0,1-.8.544,4.835,4.835,0,0,0-4.81.713c-.52.416-.6.5-.832.5s-.314-.087-.832-.5a4.837,4.837,0,0,0-4.81-.713.594.594,0,0,1-.546-.059.587.587,0,0,1-.257-.485V3.314a.586.586,0,0,1,.369-.544,6.016,6.016,0,0,1,6.077.965,6.021,6.021,0,0,1,6.077-.965.586.586,0,0,1,.369.544v7.819Z" fill="#a8a8a8"/>
    </g>
  </g>
</svg>
