<svg id="elearning1" xmlns="http://www.w3.org/2000/svg" width="57" height="57" viewBox="0 0 57 57">
  <g id="Group_30" data-name="Group 30" transform="translate(13.582 46.98)">
    <g id="Group_29" data-name="Group 29">
      <path id="Path_73" data-name="Path 73" d="M148.719,425.34h-3.34V422h-16.7v3.34h-3.34a3.34,3.34,0,0,0-3.34,3.34v1.67a1.67,1.67,0,0,0,1.67,1.67h26.719a1.67,1.67,0,0,0,1.67-1.67v-1.67A3.34,3.34,0,0,0,148.719,425.34Z" transform="translate(-122 -422)" fill="#f2be22"/>
    </g>
  </g>
  <g id="Group_32" data-name="Group 32" transform="translate(13.582 9.991)">
    <g id="Group_31" data-name="Group 31">
      <path id="Path_74" data-name="Path 74" d="M122,90.377V109.2a17.143,17.143,0,0,1,13.359,2.26V93.34C130.839,89.734,126.333,89.039,122,90.377Z" transform="translate(-122 -89.745)" fill="#f2be22"/>
    </g>
  </g>
  <g id="Group_34" data-name="Group 34" transform="translate(30.281 9.991)">
    <g id="Group_33" data-name="Group 33">
      <path id="Path_75" data-name="Path 75" d="M272,93.338v18.118a17.157,17.157,0,0,1,13.359-2.26V90.375C280.991,89.027,276.494,89.753,272,93.338Z" transform="translate(-272 -89.743)" fill="#f2be22"/>
    </g>
  </g>
  <g id="Group_36" data-name="Group 36">
    <g id="Group_35" data-name="Group 35">
      <path id="Path_76" data-name="Path 76" d="M51.99,0H5.01A5.015,5.015,0,0,0,0,5.01V38.631a5.015,5.015,0,0,0,5.01,5.01H51.99A5.015,5.015,0,0,0,57,38.631V5.01A5.015,5.015,0,0,0,51.99,0ZM46.98,31.729a1.67,1.67,0,0,1-2.29,1.551,13.78,13.78,0,0,0-13.708,2.032c-1.481,1.184-1.7,1.427-2.371,1.427s-.9-.247-2.371-1.427a13.786,13.786,0,0,0-13.708-2.032,1.692,1.692,0,0,1-1.556-.168,1.673,1.673,0,0,1-.734-1.383V9.444a1.671,1.671,0,0,1,1.05-1.551,17.147,17.147,0,0,1,17.319,2.751A17.16,17.16,0,0,1,45.93,7.893a1.671,1.671,0,0,1,1.05,1.551V31.729Z" fill="#f2be22"/>
    </g>
  </g>
</svg>
