<svg id="Asset_1" data-name="Asset 1" xmlns="http://www.w3.org/2000/svg" width="312.482" height="280" viewBox="0 0 312.482 280">
  <circle id="Oval" cx="3.473" cy="3.473" r="3.473" transform="translate(39.369 209.83)" fill="#2a2a29"/>
  <circle id="Oval-2" data-name="Oval" cx="3.473" cy="3.473" r="3.473" transform="matrix(0.16, -0.987, 0.987, 0.16, 295.497, 109.375)" fill="#2a2a29"/>
  <circle id="Oval-3" data-name="Oval" cx="118.349" cy="118.349" r="118.349" transform="translate(40.589 8.924)" fill="#ecf3fe"/>
  <path id="Path" d="M215.359,188.567v-.323a1.952,1.952,0,0,0-.022-.261V187.8a1.4,1.4,0,0,0-.026-.168,1.3,1.3,0,0,0-.026-.174c-.022-.126-.042-.245-.07-.365l-.068-.305h0l-.227-1.017h0l-21.6-96.593c-.026-.12-.06-.243-.092-.361a2.243,2.243,0,0,0-.076-.257c-.03-.1-.064-.2-.1-.3s-.06-.166-.1-.245-.066-.16-.1-.239-.092-.2-.144-.3a6.318,6.318,0,0,0-.343-.6v-.016c-.08-.12-.162-.239-.245-.351a6.782,6.782,0,0,0-1.035-1.139c-.09-.082-.184-.162-.285-.239a6.54,6.54,0,0,0-.678-.481c-.076-.048-.154-.1-.233-.138s-.2-.12-.319-.174l-.054-.024-.425-.2h0L178.2,79.13,162.778,10.049A12.848,12.848,0,0,0,147.439.309L10.049,30.987A12.848,12.848,0,0,0,.309,46.328L15.732,115.4,8,124.552l-.3.359a.247.247,0,0,0-.038.044,7.147,7.147,0,0,0-1.344,5.984l21.746,97.353.054.247h0l.07.305c.04.182.086.357.142.529.012.042.026.08.038.12s.018.06.028.09.01.036.016.052h0c0,.018.016.034.022.05.034.1.074.2.114.311a.14.14,0,0,0,.022.054c.008.014.038.08.054.118s.038.082.056.124l.03.066.028.056c.052.11.11.217.166.325.014.022.026.044.038.066l.078.132c.03.05.056.1.086.146.072.11.146.223.215.327l.01.012c.052.072.108.138.162.2.024.03.042.064.066.094.07.092.148.182.221.273l.038.038a.687.687,0,0,0,.052.056c.048.054.094.106.146.158.02.02.046.038.066.058.09.092.18.182.273.267l.056.056c.094.088.2.166.291.243l.146.116c.072.054.144.11.215.158.028.02.06.036.09.056.138.094.277.182.419.265l.136.08c.058.032.116.066.174.1a7.237,7.237,0,0,0,.716.327l.124.044c.062.024.122.048.182.068l.289.1c.066.018.134.03.2.046l.221.054c.074.018.144.034.217.048.118.022.235.038.353.054h.06c.046,0,.088.02.134.024l.178.016h.1c.152.014.3.016.451.018h.263a2.166,2.166,0,0,0,.277-.012H35.8a1.5,1.5,0,0,0,.166-.018h.074a.515.515,0,0,0,.058,0l.265-.04c.126-.024.251-.046.377-.074l172.606-38.537h0l.385-.086c.126-.03.249-.062.373-.1l.257-.076a.274.274,0,0,0,.072-.022l.122-.044.066-.022.138-.048.022-.012.168-.072a1.168,1.168,0,0,0,.138-.056l.026-.012h0l.182-.088c.134-.066.269-.132.4-.2h.014l.092-.056.12-.072c.022,0,.048-.028.068-.038s.038-.026.058-.038.06-.048.092-.068a7.193,7.193,0,0,0,.784-.6l.02-.016a1.219,1.219,0,0,0,.12-.11.866.866,0,0,0,.108-.1c.044-.04.088-.086.132-.13l.056-.06.058-.064c.068-.072.134-.146.2-.215a.253.253,0,0,1,.028-.034c.042-.05.082-.1.122-.156s.076-.094.112-.142l.04-.05.034-.044c.036-.05.072-.1.1-.148a1.028,1.028,0,0,0,.086-.122c.022-.034.044-.068.064-.1s.046-.074.07-.112c.046-.072.092-.146.132-.221s.086-.152.126-.233c.024-.044.048-.09.07-.136.062-.122.118-.243.176-.367.018-.054.042-.108.064-.164s.026-.068.038-.1c.032-.084.066-.168.092-.253a1.4,1.4,0,0,0,.054-.162c.018-.056.036-.108.052-.166s.034-.122.046-.172c.046-.166.08-.339.114-.507v-.05a1.175,1.175,0,0,1,.028-.172c.01-.062.018-.13.028-.2a.02.02,0,0,0,0-.018c0-.056.012-.112.016-.168s.012-.1.016-.154a.419.419,0,0,0,0-.074.165.165,0,0,0,0-.044v-.227a.662.662,0,0,0,0-.126.217.217,0,0,0,0-.072A.129.129,0,0,0,215.359,188.567Z" transform="translate(56.911 45.574)" fill="#232323" opacity="0.1"/>
  <path id="Path-2" data-name="Path" d="M187.177,5.611l21.861,97.918c.028.12.048.239.07.365a1.741,1.741,0,0,1,.028.174c0,.052.018.11.024.168v.18c.012.088.014.176.022.263s0,.172,0,.255v.124a.307.307,0,0,1,0,.1v.353a.076.076,0,0,1,0,.042c-.012.134-.018.267-.036.4a.036.036,0,0,1,0,.02,1.372,1.372,0,0,1-.028.2c-.01.066-.022.118-.028.174v.05c-.034.168-.066.341-.114.507-.012.05-.028.114-.044.172s-.036.108-.052.166a1.1,1.1,0,0,1-.054.162c-.036.108-.076.219-.12.323-.024.072-.054.132-.074.2-.07.148-.132.291-.2.435-.054.106-.108.2-.164.3s-.118.2-.18.3a1.569,1.569,0,0,1-.088.138.726.726,0,0,1-.086.12c-.032.05-.068.1-.1.15,0,.014-.024.028-.032.042q-.132.182-.275.347a.166.166,0,0,0-.026.036c-.078.084-.154.172-.235.255-.03.03-.052.06-.078.084s-.086.09-.132.13a.746.746,0,0,1-.108.1c-.04.038-.078.078-.118.11a6.37,6.37,0,0,1-.9.682c-.02.012-.034.026-.056.038l-.07.038c-.072.046-.146.092-.225.134a3.235,3.235,0,0,1-.4.2l-.2.1a1.129,1.129,0,0,1-.136.054l-.17.074s-.016,0-.02.012l-.14.048a.414.414,0,0,0-.066.02l-.122.046a.47.47,0,0,0-.072.022l-.257.076c-.124.034-.247.066-.373.094l-173,38.623c-.124.028-.251.05-.377.072l-.263.042a2.457,2.457,0,0,1-.3.03,1.267,1.267,0,0,1-.17.014c-.14.014-.283.016-.419.016a.83.83,0,0,1-.122,0,3.784,3.784,0,0,1-.449-.018l-.265-.036a7.917,7.917,0,0,1-1.207-.235l-.289-.1c-.11-.034-.219-.076-.325-.118a7.247,7.247,0,0,1-1.8-1.023c-.128-.1-.251-.2-.373-.309a6.9,6.9,0,0,1-1.087-1.221c-.072-.1-.146-.219-.217-.327s-.134-.227-.2-.343-.124-.233-.18-.353-.1-.221-.152-.335c-.01-.016-.014-.038-.024-.054-.042-.11-.086-.225-.124-.335a.074.074,0,0,1-.012-.028c-.032-.088-.056-.172-.082-.261-.056-.172-.1-.347-.142-.529L.176,47.365a7.145,7.145,0,0,1,1.344-5.984l.038-.046.3-.357a7.117,7.117,0,0,1,3.758-2.194L178.608.162a4.462,4.462,0,0,1,.5-.09A.233.233,0,0,1,179.2.058c.162-.024.329-.044.487-.056h.535a.646.646,0,0,1,.108,0c.172,0,.341.012.511.028s.325.036.479.06a5.7,5.7,0,0,1,.658.146,3.59,3.59,0,0,1,.355.1,4.787,4.787,0,0,1,.6.223h0l.425.2.052.024a3.254,3.254,0,0,1,.319.174c.08.042.158.09.233.138a6.062,6.062,0,0,1,.678.481,3.7,3.7,0,0,1,.287.239,6.684,6.684,0,0,1,1.033,1.139c.086.112.166.231.245.349a.116.116,0,0,0,0,.016c.126.2.235.4.341.6.052.1.1.2.146.3a2.328,2.328,0,0,1,.1.241c.03.084.068.164.1.245a2.64,2.64,0,0,1,.1.3,2.246,2.246,0,0,1,.076.257A1.931,1.931,0,0,1,187.177,5.611Z" transform="translate(69.094 118.636)" fill="#f9c067"/>
  <path id="Path-3" data-name="Path" d="M186.161,49.633,0,91.2a7.181,7.181,0,0,1,1.456-3.487l.038-.046.3-.357L73.431,2.579A7.261,7.261,0,0,1,82.008.662L182.87,46.878h0l.425.2.052.024a3.254,3.254,0,0,1,.319.174c.08.042.158.09.233.138a6.061,6.061,0,0,1,.678.481,3.7,3.7,0,0,1,.287.239,6.684,6.684,0,0,1,1.033,1.139c.086.112.166.231.245.349l.018.012Z" transform="translate(69.155 72.315)" fill="#a36017"/>
  <path id="Path-4" data-name="Path" d="M195.68,157.454,33.223,193.727.312,46.322a12.85,12.85,0,0,1,9.74-15.341L147.43.309a12.846,12.846,0,0,1,15.339,9.74Z" transform="translate(62.953 35.076)" fill="#fff"/>
  <rect id="Rectangle" width="128.544" height="7.556" rx="3.778" transform="matrix(0.976, -0.218, 0.218, 0.976, 89.407, 111.458)" fill="#e4ecf9"/>
  <rect id="Rectangle-2" data-name="Rectangle" width="128.544" height="7.556" rx="3.778" transform="matrix(0.976, -0.218, 0.218, 0.976, 92.924, 127.212)" fill="#e4ecf9"/>
  <path id="Path-5" data-name="Path" d="M123.455,7.452,4.089,34.1a3.126,3.126,0,0,1-3.72-2.362l-.3-1.3a3.126,3.126,0,0,1,2.362-3.72L121.81.073a3.128,3.128,0,0,1,3.72,2.362l.287,1.293A3.124,3.124,0,0,1,123.455,7.452Z" transform="translate(97.04 115.563)" fill="#e4ecf9"/>
  <rect id="Rectangle-3" data-name="Rectangle" width="128.544" height="7.556" rx="3.778" transform="matrix(0.976, -0.218, 0.218, 0.976, 99.961, 158.716)" fill="#e4ecf9"/>
  <path id="Path-6" data-name="Path" d="M123.456,7.448,4.084,34.1a3.126,3.126,0,0,1-3.72-2.362L.074,30.45A3.126,3.126,0,0,1,2.44,26.726L121.814.074a3.124,3.124,0,0,1,3.718,2.362l.289,1.293a3.126,3.126,0,0,1-2.366,3.72Z" transform="translate(104.075 147.074)" fill="#e4ecf9"/>
  <path id="Path-7" data-name="Path" d="M56.143,7.444,4.083,19.076a3.126,3.126,0,0,1-3.72-2.362L.075,15.422A3.124,3.124,0,0,1,2.437,11.7L54.5.073a3.128,3.128,0,0,1,3.72,2.362L58.5,3.728a3.124,3.124,0,0,1-2.362,3.716Z" transform="translate(83.662 70.683)" fill="#761c33"/>
  <path id="Path-8" data-name="Path" d="M105.2,39.646h0a4.681,4.681,0,0,1-.788,1.011L30.994,112.215l-.387.086a7.081,7.081,0,0,1-2.1.154l-.287-.026a7.109,7.109,0,0,1-3.313-1.267c-.092-.064-.184-.132-.279-.2a6.594,6.594,0,0,1-.768-.692c-.084-.082-.156-.166-.233-.249a3.232,3.232,0,0,1-.221-.273,7.135,7.135,0,0,1-1.37-2.88L.176,8.938A7.145,7.145,0,0,1,1.521,2.954l.038-.046.3-.357A7.117,7.117,0,0,1,5.618.357L7.214,0l8.505,2.942L94.137,30.091l2.95,1.021,5.627,1.947a4.731,4.731,0,0,1,1.143.578h0A4.588,4.588,0,0,1,105.2,39.646Z" transform="translate(69.094 157.063)" fill="#f4b545"/>
  <path id="Path-9" data-name="Path" d="M83.914,5.581,105.775,103.5c.028.12.048.239.07.365a1.743,1.743,0,0,1,.028.174c0,.052.018.11.024.168v.18c.012.088.014.176.022.263s0,.172,0,.255v.04a.411.411,0,0,1,0,.084.307.307,0,0,1,0,.1v.353a.076.076,0,0,1,0,.042,2.965,2.965,0,0,1-.036.4.036.036,0,0,1,0,.02,1.042,1.042,0,0,1-.028.2c-.014.072-.018.112-.028.174v.05c-.034.168-.066.341-.114.507-.012.05-.028.114-.044.172s-.036.108-.052.166a1.1,1.1,0,0,1-.054.162c-.036.108-.076.219-.12.323-.024.072-.054.132-.074.2-.068.154-.138.293-.2.435-.054.106-.108.2-.164.3s-.118.2-.18.3a1.571,1.571,0,0,1-.088.138.726.726,0,0,1-.086.12c-.032.05-.068.1-.1.15,0,.014-.024.028-.032.042q-.132.182-.275.347a.165.165,0,0,0-.026.036c-.078.084-.154.172-.235.255-.03.03-.052.06-.078.084s-.086.09-.132.13a.746.746,0,0,1-.108.1c-.04.038-.078.078-.118.11a6.371,6.371,0,0,1-.9.682l-.056.038-.07.038c-.072.046-.146.092-.225.134a3.235,3.235,0,0,1-.4.2l-.2.1a1.129,1.129,0,0,1-.136.054l-.17.074h-.016l-.144.056a.414.414,0,0,0-.066.02l-.122.046a.471.471,0,0,0-.072.022l-.257.076c-.124.034-.247.066-.373.094l-.385.086L3.07,78.628a4.41,4.41,0,0,1-1.135-.58h0a4.588,4.588,0,0,1-1.34-6h0a4.486,4.486,0,0,1,.78-1l4.261-4.155L7.87,64.715,67.31,6.8,73.757.519l1.6-.357a4.462,4.462,0,0,1,.5-.09.233.233,0,0,1,.092-.014c.162-.024.329-.044.487-.056h.535a.646.646,0,0,1,.108,0c.172,0,.341.012.511.028s.325.036.479.06a5.7,5.7,0,0,1,.658.146,3.59,3.59,0,0,1,.355.1,4.787,4.787,0,0,1,.6.223h0l.425.2.052.024a3.254,3.254,0,0,1,.319.174c.08.042.158.09.233.138a6.061,6.061,0,0,1,.678.481,3.7,3.7,0,0,1,.287.239,6.684,6.684,0,0,1,1.033,1.139c.086.112.166.231.245.349a.114.114,0,0,0,0,.016c.126.2.235.4.341.6.052.1.1.2.146.3a2.328,2.328,0,0,1,.1.241c.03.084.068.164.1.245a2.642,2.642,0,0,1,.1.3,2.244,2.244,0,0,1,.076.257A1.53,1.53,0,0,1,83.914,5.581Z" transform="translate(172.358 118.666)" fill="#f4b545"/>
  <path id="Path-10" data-name="Path" d="M187,39.23l.227,1.017a7.34,7.34,0,0,1-5.374,8.876L8.864,87.748A7.339,7.339,0,0,1,.227,82L0,80.982,75.917,2.574A8.378,8.378,0,0,1,84.958.556Z" transform="translate(90.837 181.61)" fill="#474747" opacity="0.29"/>
  <path id="Path-11" data-name="Path" d="M187.009,36.721l.217.975a7.181,7.181,0,0,1-5.441,8.577L8.794,84.89A7.181,7.181,0,0,1,.217,79.449L0,78.473,76.455,2.525A8.683,8.683,0,0,1,85.5.506Z" transform="translate(90.907 184.468)" fill="#f9c067"/>
  <circle id="Oval-4" data-name="Oval" cx="39.795" cy="39.795" r="39.795" transform="translate(203.117 33.65) rotate(-13.28)" fill="#232323" opacity="0.1"/>
  <circle id="Oval-5" data-name="Oval" cx="39.795" cy="39.795" r="39.795" transform="translate(199.923 57.157) rotate(-45)" fill="#761c33"/>
  <path id="Shape" d="M30.292,50.588h-.227a37.324,37.324,0,0,1-7.854-.9,36.966,36.966,0,0,1-10.889-4.069,23.734,23.734,0,0,1-7.4-6.557A20.592,20.592,0,0,1,.35,30.582a25.441,25.441,0,0,1,.293-9.833,28.53,28.53,0,0,1,3.99-9.712A23.756,23.756,0,0,1,21.033.371,27.029,27.029,0,0,1,25.524,0a31.808,31.808,0,0,1,6.707.747A27.131,27.131,0,0,1,40.77,4.069a19.928,19.928,0,0,1,6.01,5.54,18.167,18.167,0,0,1,3.024,7.2,20.844,20.844,0,0,1-.216,8.31,19.621,19.621,0,0,1-7.418,11.506,17.23,17.23,0,0,1-6.232,2.957,15.139,15.139,0,0,1-6.951.077,6.261,6.261,0,0,1-3.047-1.4,3.538,3.538,0,0,1-1.043-2.55,10.036,10.036,0,0,1-5.531,1.657h-.139a9.642,9.642,0,0,1-5.443-1.736,9.384,9.384,0,0,1-3.549-4.659,12.121,12.121,0,0,1-.269-6.806A19.5,19.5,0,0,1,13.378,16.7a16.6,16.6,0,0,1,6.24-5.266,11.587,11.587,0,0,1,7.677-.917A7.538,7.538,0,0,1,33.259,15.4L34.5,12.717l6.7,1.451L33.408,31.521a14.6,14.6,0,0,0-.85,2.209,1.352,1.352,0,0,0,.1.975.914.914,0,0,0,.625.482,2.589,2.589,0,0,0,.544.055,7.956,7.956,0,0,0,3.383-1.078,16.034,16.034,0,0,0,4.837-4.055A15.17,15.17,0,0,0,45.2,17.74a13.754,13.754,0,0,0-2.327-5.386,15.866,15.866,0,0,0-4.723-4.262A22.78,22.78,0,0,0,31.119,5.4a25.969,25.969,0,0,0-5.751-.645c-.689,0-1.386.028-2.073.083a19.549,19.549,0,0,0-6.736,1.8,17.7,17.7,0,0,0-5.443,4.041,22.089,22.089,0,0,0-3.6,5.226,26.193,26.193,0,0,0-2.194,6.245A18.689,18.689,0,0,0,5.331,30.5a16.586,16.586,0,0,0,3.739,7.159,21.454,21.454,0,0,0,7.254,5.21,34.358,34.358,0,0,0,10.52,2.713c1.1.105,2.175.159,3.184.159a22.424,22.424,0,0,0,5.234-.569,16.109,16.109,0,0,0,6.475-3.222l5.405,1.169a18.327,18.327,0,0,1-4.486,4.1,19.919,19.919,0,0,1-5.739,2.519A26.423,26.423,0,0,1,30.292,50.588Zm-4.6-35.506a6.052,6.052,0,0,0-3.222,1A11.684,11.684,0,0,0,18.739,20a17.817,17.817,0,0,0-2.208,5.539,7.657,7.657,0,0,0,.259,4.945,4.1,4.1,0,0,0,2.974,2.344,5.718,5.718,0,0,0,1.209.132,5.983,5.983,0,0,0,3.4-1.129,12.845,12.845,0,0,0,3.79-4.213A18.657,18.657,0,0,0,30.32,22.2a8.817,8.817,0,0,0,.2-2.492,5.851,5.851,0,0,0-.531-2.094,4.212,4.212,0,0,0-1.23-1.553,4.675,4.675,0,0,0-1.9-.851A5.46,5.46,0,0,0,25.692,15.082Z" transform="translate(231.075 31.951)" fill="#f9f9f9"/>
  <path id="Shape-2" data-name="Shape" d="M49.386,99.436h-.074a40.386,40.386,0,0,1-6.622-.94,1.219,1.219,0,0,1,.546-2.373,38.094,38.094,0,0,0,6.223.883,1.219,1.219,0,0,1-.074,2.434Zm6.486-.064a1.219,1.219,0,0,1-.092-2.434,53.983,53.983,0,0,0,6.289-.866,1.22,1.22,0,1,1,.471,2.394,56.88,56.88,0,0,1-6.572.905ZM67.4,95.854a1.217,1.217,0,0,1,.84-1.345c2-.617,4.011-1.351,5.984-2.179a1.219,1.219,0,0,1,.94,2.248c-2.052.858-4.143,1.618-6.214,2.256a1.188,1.188,0,0,1-.351.056A1.218,1.218,0,0,1,67.4,95.854Zm-30.58.594a1.221,1.221,0,0,1-.51-.112,26.656,26.656,0,0,1-5.763-3.591,1.218,1.218,0,0,1,1.55-1.878,24.207,24.207,0,0,0,5.236,3.259,1.217,1.217,0,0,1-.509,2.322ZM25.972,87.705a31.771,31.771,0,0,1-2.3-3.908,1.209,1.209,0,0,1-.923-.118,38.995,38.995,0,0,1-5.5-3.829,1.219,1.219,0,0,1,1.55-1.879,37.744,37.744,0,0,0,3.954,2.876,1.219,1.219,0,0,1,2.258,0,28.874,28.874,0,0,0,2.948,5.476,1.214,1.214,0,1,1-2,1.382Zm7.36-.822a17.3,17.3,0,0,1-4.316-.58,1.219,1.219,0,0,1,.613-2.358,13.259,13.259,0,0,0,5.886.3,1.22,1.22,0,0,1,.474,2.394,13.7,13.7,0,0,1-2.6.249ZM40.375,83a1.218,1.218,0,0,1,.384-1.354,15.908,15.908,0,0,0,3.871-4.588,1.221,1.221,0,0,1,2.129,1.2,18.414,18.414,0,0,1-4.468,5.286,1.217,1.217,0,0,1-.758.269h-.012A1.216,1.216,0,0,1,40.375,83ZM21.021,75.186a20.935,20.935,0,0,1-.148-2.433,18.046,18.046,0,0,1,.549-4.46,1.219,1.219,0,0,1,2.36.6,15.5,15.5,0,0,0-.472,3.854,18.184,18.184,0,0,0,.13,2.146,1.229,1.229,0,0,1-1.211,1.363v.008A1.217,1.217,0,0,1,21.021,75.186Zm-8.6.078a54.046,54.046,0,0,1-4.189-5.158,1.219,1.219,0,0,1,1.983-1.417,50.837,50.837,0,0,0,4,4.923,1.22,1.22,0,0,1-.9,2.044l-.006.006A1.217,1.217,0,0,1,12.425,75.264ZM47.495,72.7h-.049a1.216,1.216,0,0,1-1.169-1.265v-.419c0-.247,0-.494-.024-.745a12.879,12.879,0,0,0-1.225-4.559,1.219,1.219,0,0,1,2.207-1.037,15.4,15.4,0,0,1,1.458,5.43c.022.305.031.608.031.909,0,.174,0,.346-.01.517A1.219,1.219,0,0,1,47.5,72.7Zm-41.688-7.6V65.1a1.217,1.217,0,0,1-1.077-.646,42.561,42.561,0,0,1-2.363-5.264c-.106-.287-.2-.579-.308-.869a1.219,1.219,0,0,1,2.31-.777c.089.272.185.539.285.808a39.68,39.68,0,0,0,2.227,4.959,1.216,1.216,0,0,1-1.069,1.795Zm19.631-1.1a1.217,1.217,0,0,1-.979-1.94,16.419,16.419,0,0,1,5.164-4.677A1.218,1.218,0,1,1,30.8,59.522a13.916,13.916,0,0,0-4.378,3.99,1.22,1.22,0,0,1-.981.494Zm0,0h0Zm16.021-3.034a10.422,10.422,0,0,0-5.168-2.485,1.222,1.222,0,1,1,.367-2.416,12.831,12.831,0,0,1,6.383,3.044,1.219,1.219,0,0,1-.8,2.144l.014.008h0A1.215,1.215,0,0,1,41.457,60.972ZM1.678,52.846a1.219,1.219,0,0,1-1.2-1.033A41.758,41.758,0,0,1,0,45.5v-.351a1.214,1.214,0,1,1,2.427.018V45.5a39.237,39.237,0,0,0,.447,5.944,1.219,1.219,0,0,1-1.02,1.4,1.027,1.027,0,0,1-.125.007ZM1.562,39.9A1.216,1.216,0,0,1,.543,38.5a52.449,52.449,0,0,1,1.428-6.489,1.219,1.219,0,1,1,2.342.67A49.893,49.893,0,0,0,2.95,38.87a1.219,1.219,0,0,1-1.2,1.045A1.17,1.17,0,0,1,1.562,39.9ZM4.823,27.35a1.219,1.219,0,0,1-.661-1.6A65.714,65.714,0,0,1,7,19.785a1.219,1.219,0,0,1,2.145,1.157A61.816,61.816,0,0,0,6.415,26.69a1.22,1.22,0,0,1-1.128.754A1.193,1.193,0,0,1,4.823,27.35Zm5.528-11.978a1.219,1.219,0,0,1,.058-1.248c1.2-1.807,2.509-3.59,3.887-5.332A1.218,1.218,0,0,1,16.2,10.309c-1.335,1.677-2.593,3.415-3.764,5.164a1.215,1.215,0,0,1-2.086-.1Zm9.141-9.518a1.219,1.219,0,0,1-.89-2.043C19.7,2.639,20.854,1.47,22.041.337A1.217,1.217,0,1,1,23.722,2.1c-1.153,1.1-2.275,2.238-3.341,3.377a1.217,1.217,0,0,1-.883.38Z" transform="translate(8.356 30.497)" fill="#f4b545"/>
  <path id="Path-12" data-name="Path" d="M92.628,3.654,0,0,19.055,20.461l-4.983,30.7L35.778,38.383l9.235,9.862L92.628,3.654Z" transform="translate(0 3.656)" fill="#232323" opacity="0.1"/>
  <path id="Path-13" data-name="Path" d="M0,47.507,7.279,2.663,78.558,0,0,47.507Z" transform="translate(15.221 3.656)" fill="#99314b"/>
  <path id="Path-14" data-name="Path" d="M19.185,20.6C19.562,20.487,92.63,3.656,92.63,3.656L0,0Z" transform="translate(1.149)" fill="#761c33"/>
  <path id="Path-15" data-name="Path" d="M11.623,0,0,23.545,35.978,2.366,11.623,0Z" transform="translate(15.221 27.618)" fill="#a63b56"/>
  <path id="Path-16" data-name="Path" d="M0,23.962,19.318,44.589,66.935,0,0,23.962Z" transform="translate(26.844 3.656)" fill="#761c33"/>
  <path id="Path-17" data-name="Path" d="M8.562,1.9,11.941.121a1.043,1.043,0,0,1,1.514,1.105l-.644,3.762a1.039,1.039,0,0,0,.3.924l2.733,2.665a1.043,1.043,0,0,1-.576,1.781l-3.778.543a1.035,1.035,0,0,0-.782.57L9.017,14.893a1.045,1.045,0,0,1-1.873,0L5.457,11.47a1.041,1.041,0,0,0-.786-.57L.893,10.351A1.045,1.045,0,0,1,.314,8.57L3.047,5.905a1.039,1.039,0,0,0,.3-.924L2.7,1.226A1.043,1.043,0,0,1,4.212.127L7.591,1.9A1.045,1.045,0,0,0,8.562,1.9Z" transform="translate(150.861 2.564)" fill="#2a2a29"/>
</svg>
