<svg id="Group" xmlns="http://www.w3.org/2000/svg" width="92.772" height="33" viewBox="0 0 92.772 33">
  <path id="Fill_1313" data-name="Fill 1313" d="M38.275,22.653H20.657V7.551H18.14v15.1H.521V20.136h15.1V5.034h7.55v15.1h2.517V11.326h2.517v8.809h2.516V11.326h2.517v8.809h2.516V0h7.551V22.651H40.792V2.517H38.275V22.652ZM13.106,17.618H.521V11.326H3.038V15.1h7.55V12.585H5.555V5.034h7.551V17.617ZM8.072,7.551v2.517h2.516V7.551ZM1.779,9.392h0L0,7.613,1.658,5.955,0,4.3,1.779,2.517,3.56,4.3,1.9,5.955,3.56,7.613,1.78,9.392ZM27.823,9h0l-1.779-1.78,1.78-1.779,1.642,1.642,1.642-1.642,1.78,1.779L31.108,8.995,29.466,7.353,27.824,9Zm1.643-2.919h0L27.686,4.3l1.78-1.779L31.245,4.3,29.467,6.076Z" transform="translate(0 1.684)" fill="#fff"/>
  <path id="Fill_1314" data-name="Fill 1314" d="M0,33H.54V0H0Z" transform="translate(46.57)" fill="#fff"/>
  <g id="Group_1382" data-name="Group 1382" transform="translate(21.57 9.841)">
    <path id="Fill_1315" data-name="Fill 1315" d="M6.769,0H5.774a3.154,3.154,0,0,0-.66.07,1.555,1.555,0,0,0-.586.256,1.958,1.958,0,0,0-.361.345c-.03.037-.049.057-.091.116a1.379,1.379,0,0,0-.152.766v.734a3.03,3.03,0,0,1-.028.451.581.581,0,0,1-.116.288.493.493,0,0,1-.26.153,1.79,1.79,0,0,1-.451.046H.958a.452.452,0,0,1-.339-.112.544.544,0,0,1-.107-.381V.688A.082.082,0,0,0,.419.6H.093A.082.082,0,0,0,0,.688V2.724a1.042,1.042,0,0,0,.251.79,1.217,1.217,0,0,0,.837.232H3.18A2.229,2.229,0,0,0,3.8,3.673a.556.556,0,0,0,.139-.056l.012-.007a.78.78,0,0,0,.248-.2,1.091,1.091,0,0,0,.214-.483,3.822,3.822,0,0,0,.065-.772v-.67A1.165,1.165,0,0,1,4.724.911a1.094,1.094,0,0,1,.9-.325h.725v2.1l.511-.13V.093A.082.082,0,0,0,6.769,0" transform="translate(0 17.835)" fill="#fff"/>
    <path id="Fill_1317" data-name="Fill 1317" d="M.093.744H.577A.082.082,0,0,0,.669.651V.093A.082.082,0,0,0,.577,0H.093A.082.082,0,0,0,0,.093V.651A.082.082,0,0,0,.093.744" transform="translate(13.778 16.18)" fill="#fff"/>
    <path id="Fill_1319" data-name="Fill 1319" d="M.093.744H.576A.082.082,0,0,0,.669.651V.093A.082.082,0,0,0,.576,0H.093A.082.082,0,0,0,0,.093V.651A.082.082,0,0,0,.093.744" transform="translate(12.588 16.18)" fill="#fff"/>
    <path id="Fill_1321" data-name="Fill 1321" d="M.093.744H.465A.082.082,0,0,0,.558.651V.093A.082.082,0,0,0,.465,0H.093A.082.082,0,0,0,0,.093V.651A.082.082,0,0,0,.093.744" transform="translate(15.898 16.18)" fill="#fff"/>
    <path id="Fill_1323" data-name="Fill 1323" d="M12.339,3.98a2.194,2.194,0,0,1-.744-.122,1.115,1.115,0,0,1-.541-.4.753.753,0,0,1-.4.382,1.549,1.549,0,0,1-.485.074H9.625a2.239,2.239,0,0,1-.671-.088.656.656,0,0,1-.409-.4.967.967,0,0,1-.3.358.922.922,0,0,1-.539.134H6.992a2.232,2.232,0,0,1-.67-.088.653.653,0,0,1-.409-.4.978.978,0,0,1-.3.358.922.922,0,0,1-.539.134H4.324a2.229,2.229,0,0,1-.7-.1.649.649,0,0,1-.418-.437.784.784,0,0,1-.391.418,1.626,1.626,0,0,1-.679.121H.093A.081.081,0,0,1,0,3.821V3.487a.081.081,0,0,1,.093-.093h1.86A1.772,1.772,0,0,0,2.4,3.347a.5.5,0,0,0,.26-.153.591.591,0,0,0,.116-.288,3,3,0,0,0,.028-.452v-.9A1,1,0,0,0,2.529.777,1.3,1.3,0,0,0,1.636.521H.549A.083.083,0,0,1,.455.427V.093A.083.083,0,0,1,.549,0H1.795a2.135,2.135,0,0,1,.646.093,1.3,1.3,0,0,1,.5.284,1.278,1.278,0,0,1,.316.489,2.042,2.042,0,0,1,.112.715V2.687a.609.609,0,0,0,.247.529,1.1,1.1,0,0,0,.655.177h.753A.674.674,0,0,0,5.3,3.347.29.29,0,0,0,5.449,3.2a.719.719,0,0,0,.06-.247c.01-.1.014-.209.014-.344V.26A.081.081,0,0,1,5.616.167h.326A.081.081,0,0,1,6.035.26V2.7a.6.6,0,0,0,.247.526,1.129,1.129,0,0,0,.655.172h.716a.675.675,0,0,0,.278-.047A.3.3,0,0,0,8.08,3.2a.738.738,0,0,0,.06-.247c.009-.1.014-.214.014-.344V.26A.083.083,0,0,1,8.248.167h.325A.083.083,0,0,1,8.666.26V2.7a.6.6,0,0,0,.246.526,1.135,1.135,0,0,0,.656.172h.569a.6.6,0,0,0,.2-.037.456.456,0,0,0,.186-.135.812.812,0,0,0,.14-.256,1.232,1.232,0,0,0,.056-.4c-.006-.067-.01-.144-.014-.237s0-.177,0-.256C10.7.7,11.253,0,12.335,0a1.505,1.505,0,0,1,1.22.493,2.282,2.282,0,0,1,.412,1.488A2.321,2.321,0,0,1,13.555,3.5,1.513,1.513,0,0,1,12.339,3.98Zm0-3.459a.939.939,0,0,0-.843.4,1.979,1.979,0,0,0-.258,1.093A1.881,1.881,0,0,0,11.5,3.1a.975.975,0,0,0,.843.358.989.989,0,0,0,.848-.358,1.848,1.848,0,0,0,.263-1.092A1.974,1.974,0,0,0,13.191.921.948.948,0,0,0,12.344.521Z" transform="translate(7.772 17.668)" fill="#fff"/>
    <path id="Fill_1325" data-name="Fill 1325" d="M1.019,6.077H0L2.414,0h.839l2.4,6.075H4.639L4,4.424H1.652L1.019,6.077ZM2.833,1.1,1.823,3.714H3.809L2.833,1.1Z" transform="translate(29.174 0.043)" fill="#fff"/>
    <path id="Fill_1327" data-name="Fill 1327" d="M0,6.076V0H.958V5.229H4.219v.847Z" transform="translate(35.576 0.043)" fill="#fff"/>
    <path id="Fill_1329" data-name="Fill 1329" d="M4.057,1.472a1.316,1.316,0,0,0-.248-.2,2.494,2.494,0,0,0-.381-.2A2.8,2.8,0,0,0,2.948.916a2.385,2.385,0,0,0-.535-.06,1.457,1.457,0,0,0-.894.223.736.736,0,0,0-.287.616.666.666,0,0,0,.09.364.768.768,0,0,0,.278.248,2.168,2.168,0,0,0,.471.188q.282.082.659.175a7.624,7.624,0,0,1,.834.248,2.379,2.379,0,0,1,.629.334,1.363,1.363,0,0,1,.4.484,1.569,1.569,0,0,1,.141.7,1.693,1.693,0,0,1-.175.8,1.5,1.5,0,0,1-.479.543,2.113,2.113,0,0,1-.706.308,3.636,3.636,0,0,1-.864.1,4.3,4.3,0,0,1-1.339-.21A3.828,3.828,0,0,1,0,5.357l.436-.822a2.02,2.02,0,0,0,.321.248,2.966,2.966,0,0,0,.488.252,4.252,4.252,0,0,0,.6.2,2.774,2.774,0,0,0,.676.081,1.621,1.621,0,0,0,.873-.2.646.646,0,0,0,.308-.582.625.625,0,0,0-.116-.385,1,1,0,0,0-.33-.27,2.877,2.877,0,0,0-.522-.21q-.308-.094-.7-.2a7.25,7.25,0,0,1-.792-.252A1.977,1.977,0,0,1,.685,2.9,1.258,1.258,0,0,1,.347,2.46a1.464,1.464,0,0,1-.116-.612A1.765,1.765,0,0,1,.4,1.057,1.69,1.69,0,0,1,.869.475a2.038,2.038,0,0,1,.7-.355A3.047,3.047,0,0,1,2.439,0,3.2,3.2,0,0,1,3.577.2a3.773,3.773,0,0,1,.916.488Z" transform="translate(41.995 0)" fill="#fff"/>
    <path id="Fill_1331" data-name="Fill 1331" d="M4.99,0V6.076H4.022V3.4H.958V6.076H0V0H.958V2.542H4.022V0Z" transform="translate(47.686 0.043)" fill="#fff"/>
    <path id="Fill_1333" data-name="Fill 1333" d="M1.019,6.077H0L2.414,0h.839l2.4,6.075H4.639L4,4.424H1.652L1.019,6.077ZM2.833,1.1,1.823,3.714H3.809L2.833,1.1Z" transform="translate(53.42 0.043)" fill="#fff"/>
    <path id="Fill_1335" data-name="Fill 1335" d="M.959,6.078H0V0H2.644A1.7,1.7,0,0,1,3.4.171,1.951,1.951,0,0,1,4,.62a2.135,2.135,0,0,1,.39.634,1.961,1.961,0,0,1,.14.724,2.015,2.015,0,0,1-.085.59A2.081,2.081,0,0,1,4.2,3.09a1.71,1.71,0,0,1-.376.415,1.556,1.556,0,0,1-.488.261l1.428,2.31-1.086,0L2.363,3.963H.959V6.077Zm0-5.231V3.115H2.636a.784.784,0,0,0,.373-.089.9.9,0,0,0,.286-.248,1.236,1.236,0,0,0,.188-.364,1.378,1.378,0,0,0,.068-.437,1.183,1.183,0,0,0-.081-.436,1.249,1.249,0,0,0-.214-.36A1.022,1.022,0,0,0,2.948.937a.8.8,0,0,0-.364-.09Z" transform="translate(59.822 0.043)" fill="#fff"/>
    <path id="Fill_1337" data-name="Fill 1337" d="M2.91,6.162A2.647,2.647,0,0,1,1.724,5.9,3.062,3.062,0,0,1,.8,5.2,3.1,3.1,0,0,1,.21,4.219,3.2,3.2,0,0,1,0,3.081,3.115,3.115,0,0,1,.222,1.917,3.273,3.273,0,0,1,.834.932a2.973,2.973,0,0,1,.924-.68A2.725,2.725,0,0,1,2.927,0,2.614,2.614,0,0,1,4.112.269a3.008,3.008,0,0,1,.916.707,3.265,3.265,0,0,1,.59.988,3.168,3.168,0,0,1,.21,1.126,3.122,3.122,0,0,1-.214,1.151,3.173,3.173,0,0,1-.6.971l.8.907H4.887l-.393-.445a2.941,2.941,0,0,1-.741.359A2.747,2.747,0,0,1,2.91,6.162Zm.009-5.3a1.725,1.725,0,0,0-.822.193,1.933,1.933,0,0,0-.608.5,2.312,2.312,0,0,0-.381.711,2.528,2.528,0,0,0-.133.808,2.583,2.583,0,0,0,.137.831,2.255,2.255,0,0,0,.39.71,1.912,1.912,0,0,0,.612.492,1.75,1.75,0,0,0,.8.184,1.791,1.791,0,0,0,.53-.076A1.759,1.759,0,0,0,3.9,5.007l-.864-1h.924l.436.5a2.155,2.155,0,0,0,.334-.671,2.66,2.66,0,0,0,.111-.758,2.569,2.569,0,0,0-.137-.834,2.263,2.263,0,0,0-.39-.706,1.9,1.9,0,0,0-.607-.492A1.7,1.7,0,0,0,2.919.864Z" transform="translate(65.094)" fill="#fff"/>
    <path id="Fill_1339" data-name="Fill 1339" d="M0,4.66V0H3.058V.407H.46V2.12H2.651V2.5H.46V4.66Z" transform="translate(29.698 8.596)" fill="#fff"/>
    <path id="Fill_1341" data-name="Fill 1341" d="M2.185,4.725a1.986,1.986,0,0,1-.889-.2A2.227,2.227,0,0,1,.6,3.993a2.426,2.426,0,0,1-.446-.758A2.507,2.507,0,0,1,0,2.362,2.434,2.434,0,0,1,.167,1.47,2.466,2.466,0,0,1,.63.715a2.258,2.258,0,0,1,.7-.522A1.981,1.981,0,0,1,2.192,0a1.932,1.932,0,0,1,.889.207A2.233,2.233,0,0,1,3.77.748a2.5,2.5,0,0,1,.443.758,2.464,2.464,0,0,1-.469,2.507,2.221,2.221,0,0,1-.692.518A1.969,1.969,0,0,1,2.185,4.725Zm0-4.3A1.532,1.532,0,0,0,1.47.588a1.712,1.712,0,0,0-.544.443,2.074,2.074,0,0,0-.345.624,2.139,2.139,0,0,0-.122.708,2.188,2.188,0,0,0,.125.732,2,2,0,0,0,.355.624,1.746,1.746,0,0,0,.544.433,1.528,1.528,0,0,0,.7.161A1.512,1.512,0,0,0,2.9,4.141a1.736,1.736,0,0,0,.545-.446,2.079,2.079,0,0,0,.345-.623,2.149,2.149,0,0,0,.122-.709,2.125,2.125,0,0,0-.128-.732,2,2,0,0,0-.358-.62A1.782,1.782,0,0,0,2.881.58,1.514,1.514,0,0,0,2.185.42Z" transform="translate(33.15 8.563)" fill="#fff"/>
    <path id="Fill_1343" data-name="Fill 1343" d="M.46,4.66H0V0H1.969a1.222,1.222,0,0,1,.554.128A1.473,1.473,0,0,1,2.96.463a1.532,1.532,0,0,1,.285.47,1.469,1.469,0,0,1,.1.531,1.587,1.587,0,0,1-.076.49,1.53,1.53,0,0,1-.21.419,1.28,1.28,0,0,1-.325.315,1.151,1.151,0,0,1-.427.174l1.141,1.8-.517,0L1.838,2.94H.46V4.659ZM.46.407V2.534H1.982a.78.78,0,0,0,.371-.089.872.872,0,0,0,.285-.239,1.173,1.173,0,0,0,.184-.341,1.24,1.24,0,0,0,.065-.4,1.1,1.1,0,0,0-.075-.4,1.131,1.131,0,0,0-.2-.338.974.974,0,0,0-.3-.229A.823.823,0,0,0,1.943.407Z" transform="translate(38.387 8.596)" fill="#fff"/>
    <path id="Fill_1345" data-name="Fill 1345" d="M1.956,4.279a1.453,1.453,0,0,0,.732-.167,1.321,1.321,0,0,0,.466-.44,1.787,1.787,0,0,0,.243-.62,3.613,3.613,0,0,0,.069-.7V0h.459V2.349a3.705,3.705,0,0,1-.105.9,2.127,2.127,0,0,1-.338.745,1.67,1.67,0,0,1-.607.512,1.993,1.993,0,0,1-.912.19,1.962,1.962,0,0,1-.929-.2,1.7,1.7,0,0,1-.607-.528A2.141,2.141,0,0,1,.1,3.216,3.779,3.779,0,0,1,0,2.349V0H.453V2.349a3.508,3.508,0,0,0,.072.715,1.791,1.791,0,0,0,.246.617,1.308,1.308,0,0,0,.463.433,1.441,1.441,0,0,0,.722.164" transform="translate(42.608 8.596)" fill="#fff"/>
    <path id="Fill_1347" data-name="Fill 1347" d="M4.128,4.66V.833l-1.7,2.96H2.159L.46.833V4.66H0V0H.472L2.291,3.19,4.122,0h.466V4.66Z" transform="translate(47.628 8.596)" fill="#fff"/>
    <path id="Fill_1349" data-name="Fill 1349" d="M.632,1.862H0V0H.632a.959.959,0,0,1,.39.074.8.8,0,0,1,.278.2.854.854,0,0,1,.167.3,1.129,1.129,0,0,1,.056.36,1.128,1.128,0,0,1-.062.384.845.845,0,0,1-.18.293A.785.785,0,0,1,1,1.795.96.96,0,0,1,.632,1.862ZM.184.163V1.7H.632A.742.742,0,0,0,.937,1.64a.624.624,0,0,0,.222-.162.711.711,0,0,0,.135-.244A.984.984,0,0,0,1.34.928.964.964,0,0,0,1.292.62.691.691,0,0,0,1.155.378.621.621,0,0,0,.933.219a.772.772,0,0,0-.3-.056Z" transform="translate(29.815 19.477)" fill="#fff"/>
    <path id="Fill_1353" data-name="Fill 1353" d="M.556,1.366,0,0H.184L.653,1.2,1.125,0H1.3L.742,1.366Z" transform="translate(32.497 19.973)" fill="#fff"/>
    <path id="Fill_1354" data-name="Fill 1354" d="M.684,1.416A.667.667,0,0,1,.41,1.36a.678.678,0,0,1-.216-.155A.7.7,0,0,1,.051.978.738.738,0,0,1,0,.7.718.718,0,0,1,.051.431.7.7,0,0,1,.193.209.678.678,0,0,1,.409.057.664.664,0,0,1,.681,0,.656.656,0,0,1,.956.057.648.648,0,0,1,1.169.21.717.717,0,0,1,1.358.7V.743a.106.106,0,0,1,0,.029H.186a.594.594,0,0,0,.051.2.569.569,0,0,0,.112.161A.517.517,0,0,0,.5,1.242a.476.476,0,0,0,.319.019.53.53,0,0,0,.121-.049.438.438,0,0,0,.1-.077.333.333,0,0,0,.067-.1l.155.042a.454.454,0,0,1-.089.138.653.653,0,0,1-.133.107.682.682,0,0,1-.168.071A.749.749,0,0,1,.684,1.416ZM.684.14A.488.488,0,0,0,.339.278.516.516,0,0,0,.232.436a.6.6,0,0,0-.049.2h1A.549.549,0,0,0,1.027.278a.5.5,0,0,0-.155-.1A.488.488,0,0,0,.684.14Z" transform="translate(34.11 19.949)" fill="#fff"/>
    <path id="Fill_1355" data-name="Fill 1355" d="M.682.165a.561.561,0,0,0-.315.1.5.5,0,0,0-.189.26v.849H0V.008H.168V.336a.62.62,0,0,1,.2-.246A.474.474,0,0,1,.648,0,.174.174,0,0,1,.682,0Z" transform="translate(35.953 19.965)" fill="#fff"/>
    <path id="Fill_1356" data-name="Fill 1356" d="M.574,1.416a.95.95,0,0,1-.312-.053A.751.751,0,0,1,0,1.211l.081-.121a.883.883,0,0,0,.235.142.686.686,0,0,0,.256.047.461.461,0,0,0,.264-.067.217.217,0,0,0,.1-.19.166.166,0,0,0-.026-.1A.229.229,0,0,0,.83.86.616.616,0,0,0,.7.809C.65.794.59.779.522.763S.375.725.317.705A.629.629,0,0,1,.174.64.238.238,0,0,1,.09.549.3.3,0,0,1,.063.414.389.389,0,0,1,.1.233.368.368,0,0,1,.214.1.5.5,0,0,1,.376.026.725.725,0,0,1,.574,0,.767.767,0,0,1,.86.051a.568.568,0,0,1,.207.135l-.087.1A.482.482,0,0,0,.8.173.664.664,0,0,0,.569.134.564.564,0,0,0,.438.148.308.308,0,0,0,.332.194.224.224,0,0,0,.26.274.236.236,0,0,0,.233.388.189.189,0,0,0,.252.477a.155.155,0,0,0,.06.059A.487.487,0,0,0,.418.581Q.482.6.574.621.705.653.8.684A.72.72,0,0,1,.971.758a.289.289,0,0,1,.1.1.3.3,0,0,1,.034.147.357.357,0,0,1-.144.3.625.625,0,0,1-.388.11" transform="translate(36.963 19.949)" fill="#fff"/>
    <path id="Fill_1358" data-name="Fill 1358" d="M.787,1.762l-.046.021c-.02.009-.043.018-.07.026a.785.785,0,0,1-.089.024.513.513,0,0,1-.1.01.382.382,0,0,1-.11-.016.261.261,0,0,1-.092-.049A.237.237,0,0,1,.213,1.7a.264.264,0,0,1-.024-.115V.6H0V.462H.189V0H.367V.462H.682V.6H.367v.928a.142.142,0,0,0,.054.112.184.184,0,0,0,.111.035.336.336,0,0,0,.134-.025.578.578,0,0,0,.073-.035Z" transform="translate(39.22 19.511)" fill="#fff"/>
    <path id="Fill_1359" data-name="Fill 1359" d="M.236,1.786l.041,0H.315a.176.176,0,0,0,.075-.013A.138.138,0,0,0,.443,1.72.915.915,0,0,0,.5,1.592Q.535,1.508.6,1.366L0,0H.183L.689,1.2,1.159,0h.17L.621,1.762a.322.322,0,0,1-.1.133.275.275,0,0,1-.182.056H.294L.236,1.943Z" transform="translate(40.282 19.972)" fill="#fff"/>
    <path id="Fill_1360" data-name="Fill 1360" d="M.007.257H.162V0H.007Z" transform="translate(41.911 21.082)" fill="#fff"/>
    <path id="Fill_1361" data-name="Fill 1361" d="M0,1.862H.183V0H0Z" transform="translate(43.565 19.477)" fill="#fff"/>
    <path id="Fill_1362" data-name="Fill 1362" d="M1.148,1.39H.97V.627A.667.667,0,0,0,.9.273.247.247,0,0,0,.676.163.451.451,0,0,0,.519.192.534.534,0,0,0,.374.273.626.626,0,0,0,.254.4.493.493,0,0,0,.178.553V1.39H0V.024H.163V.333A.642.642,0,0,1,.4.092.658.658,0,0,1,.742,0,.405.405,0,0,1,.934.042.327.327,0,0,1,1.059.16a.546.546,0,0,1,.068.186A1.308,1.308,0,0,1,1.148.59Z" transform="translate(44.388 19.949)" fill="#fff"/>
    <path id="Fill_1363" data-name="Fill 1363" d="M.787,1.762l-.046.021c-.02.009-.043.018-.07.026a.785.785,0,0,1-.089.024.513.513,0,0,1-.1.01.382.382,0,0,1-.11-.016.261.261,0,0,1-.092-.049A.237.237,0,0,1,.213,1.7a.264.264,0,0,1-.024-.115V.6H0V.462H.189V0H.367V.462H.682V.6H.367v.928a.142.142,0,0,0,.054.112.184.184,0,0,0,.111.035.336.336,0,0,0,.134-.025.578.578,0,0,0,.073-.035Z" transform="translate(45.982 19.511)" fill="#fff"/>
    <path id="Fill_1364" data-name="Fill 1364" d="M.684,1.416A.667.667,0,0,1,.41,1.36a.678.678,0,0,1-.216-.155A.7.7,0,0,1,.051.978.738.738,0,0,1,0,.7.718.718,0,0,1,.051.431.7.7,0,0,1,.193.209.678.678,0,0,1,.409.057.664.664,0,0,1,.681,0,.656.656,0,0,1,.956.057.648.648,0,0,1,1.169.21.717.717,0,0,1,1.358.7V.743a.106.106,0,0,1,0,.029H.186a.594.594,0,0,0,.051.2.569.569,0,0,0,.112.161A.517.517,0,0,0,.5,1.242a.476.476,0,0,0,.319.019.53.53,0,0,0,.121-.049.438.438,0,0,0,.1-.077.333.333,0,0,0,.067-.1l.155.042a.454.454,0,0,1-.089.138.653.653,0,0,1-.133.107.682.682,0,0,1-.168.071A.749.749,0,0,1,.684,1.416ZM.684.14A.488.488,0,0,0,.339.278.516.516,0,0,0,.232.436a.6.6,0,0,0-.049.2h1A.549.549,0,0,0,1.027.278a.5.5,0,0,0-.155-.1A.488.488,0,0,0,.684.14Z" transform="translate(47.073 19.949)" fill="#fff"/>
    <path id="Fill_1365" data-name="Fill 1365" d="M.651,1.975A.759.759,0,0,1,.27,1.891a.671.671,0,0,1-.233-.226l.11-.086a.487.487,0,0,0,.215.193.68.68,0,0,0,.289.061.648.648,0,0,0,.188-.027A.48.48,0,0,0,1,1.724.391.391,0,0,0,1.1,1.588a.434.434,0,0,0,.04-.193v-.27a.569.569,0,0,1-.215.207.576.576,0,0,1-.285.077.561.561,0,0,1-.258-.059.656.656,0,0,1-.2-.156A.711.711,0,0,1,.047.97.733.733,0,0,1,0,.711.812.812,0,0,1,.046.439.707.707,0,0,1,.176.212a.641.641,0,0,1,.2-.155A.589.589,0,0,1,.635,0a.528.528,0,0,1,.3.088A.849.849,0,0,1,1.159.31V.023h.159V1.395a.567.567,0,0,1-.053.25.558.558,0,0,1-.144.183.631.631,0,0,1-.212.11A.9.9,0,0,1,.651,1.975ZM.669.158A.43.43,0,0,0,.463.206.489.489,0,0,0,.31.333a.552.552,0,0,0-.1.178.631.631,0,0,0-.033.2.572.572,0,0,0,.04.21A.542.542,0,0,0,.329,1.1a.51.51,0,0,0,.161.118.452.452,0,0,0,.2.043.421.421,0,0,0,.155-.029.542.542,0,0,0,.138-.077.515.515,0,0,0,.1-.109A.332.332,0,0,0,1.14.921V.5A.517.517,0,0,0,1.062.362.559.559,0,0,0,.815.184.44.44,0,0,0,.669.158Z" transform="translate(48.824 19.949)" fill="#fff"/>
    <path id="Fill_1366" data-name="Fill 1366" d="M.682.165a.561.561,0,0,0-.315.1.5.5,0,0,0-.189.26v.849H0V.008H.168V.336a.62.62,0,0,1,.2-.246A.474.474,0,0,1,.648,0,.174.174,0,0,1,.682,0Z" transform="translate(50.746 19.965)" fill="#fff"/>
    <path id="Fill_1368" data-name="Fill 1368" d="M.787,1.762l-.046.021c-.02.009-.043.018-.07.026a.785.785,0,0,1-.089.024.513.513,0,0,1-.1.01.382.382,0,0,1-.11-.016.261.261,0,0,1-.092-.049A.237.237,0,0,1,.213,1.7a.264.264,0,0,1-.024-.115V.6H0V.462H.189V0H.367V.462H.682V.6H.367v.928a.142.142,0,0,0,.054.112.184.184,0,0,0,.111.035.336.336,0,0,0,.134-.025.578.578,0,0,0,.073-.035Z" transform="translate(52.526 19.511)" fill="#fff"/>
    <path id="Fill_1369" data-name="Fill 1369" d="M.236,1.786l.041,0H.315a.176.176,0,0,0,.075-.013A.138.138,0,0,0,.443,1.72.915.915,0,0,0,.5,1.592Q.535,1.508.6,1.366L0,0H.183L.689,1.2,1.159,0h.17L.621,1.762a.322.322,0,0,1-.1.133.275.275,0,0,1-.182.056H.294L.236,1.943Z" transform="translate(53.588 19.972)" fill="#fff"/>
    <path id="Fill_1370" data-name="Fill 1370" d="M.007.257H.162V0H.007Z" transform="translate(55.218 21.082)" fill="#fff"/>
    <path id="Fill_1371" data-name="Fill 1371" d="M.184,1.862H0V0H.77A.487.487,0,0,1,.993.051a.579.579,0,0,1,.174.134.612.612,0,0,1,.115.187.551.551,0,0,1,.042.212.641.641,0,0,1-.04.221.6.6,0,0,1-.11.187.542.542,0,0,1-.169.131.479.479,0,0,1-.219.049h-.6v.687Zm0-1.7v.85H.778A.309.309,0,0,0,.927.976.369.369,0,0,0,1.041.882.445.445,0,0,0,1.114.746.486.486,0,0,0,1.14.585a.453.453,0,0,0-.03-.164A.459.459,0,0,0,1.03.286.371.371,0,0,0,.909.2.346.346,0,0,0,.763.163Z" transform="translate(56.871 19.477)" fill="#fff"/>
    <path id="Fill_1372" data-name="Fill 1372" d="M.682.165a.561.561,0,0,0-.315.1.5.5,0,0,0-.189.26v.849H0V.008H.168V.336a.62.62,0,0,1,.2-.246A.474.474,0,0,1,.648,0,.174.174,0,0,1,.682,0Z" transform="translate(58.675 19.965)" fill="#fff"/>
    <path id="Fill_1373" data-name="Fill 1373" d="M.676,1.416A.665.665,0,0,1,.4,1.36.677.677,0,0,1,.19,1.206.7.7,0,0,1,.05.981.75.75,0,0,1,0,.71.738.738,0,0,1,.051.437.712.712,0,0,1,.193.212.7.7,0,0,1,.406.058.633.633,0,0,1,.676,0,.637.637,0,0,1,.948.058a.691.691,0,0,1,.215.155A.712.712,0,0,1,1.3.437.738.738,0,0,1,1.355.71a.75.75,0,0,1-.049.271.7.7,0,0,1-.14.225A.674.674,0,0,1,.95,1.36.67.67,0,0,1,.676,1.416Zm0-1.258A.434.434,0,0,0,.485.2.519.519,0,0,0,.328.32.593.593,0,0,0,.181.713a.553.553,0,0,0,.04.214A.566.566,0,0,0,.327,1.1a.467.467,0,0,0,.157.117.455.455,0,0,0,.193.041.445.445,0,0,0,.193-.043A.5.5,0,0,0,1.028,1.1.564.564,0,0,0,1.135.923a.577.577,0,0,0,.04-.214.591.591,0,0,0-.04-.214A.559.559,0,0,0,1.028.319.517.517,0,0,0,.869.2.445.445,0,0,0,.676.158Z" transform="translate(59.643 19.949)" fill="#fff"/>
    <path id="Fill_1374" data-name="Fill 1374" d="M.574,1.416a.95.95,0,0,1-.312-.053A.751.751,0,0,1,0,1.211l.081-.121a.883.883,0,0,0,.235.142.686.686,0,0,0,.256.047.461.461,0,0,0,.264-.067.217.217,0,0,0,.1-.19.166.166,0,0,0-.026-.1A.229.229,0,0,0,.83.86.616.616,0,0,0,.7.809C.65.794.59.779.522.763S.375.725.317.705A.629.629,0,0,1,.174.64.238.238,0,0,1,.09.549.3.3,0,0,1,.063.414.389.389,0,0,1,.1.233.368.368,0,0,1,.214.1.5.5,0,0,1,.376.026.725.725,0,0,1,.574,0,.767.767,0,0,1,.86.051a.568.568,0,0,1,.207.135l-.087.1A.482.482,0,0,0,.8.173.664.664,0,0,0,.569.134.564.564,0,0,0,.438.148.308.308,0,0,0,.332.194.224.224,0,0,0,.26.274.236.236,0,0,0,.233.388.189.189,0,0,0,.252.477a.155.155,0,0,0,.06.059A.487.487,0,0,0,.418.581Q.482.6.574.621.705.653.8.684A.72.72,0,0,1,.971.758a.289.289,0,0,1,.1.1.3.3,0,0,1,.034.147.357.357,0,0,1-.144.3.625.625,0,0,1-.388.11" transform="translate(61.386 19.949)" fill="#fff"/>
    <path id="Fill_1375" data-name="Fill 1375" d="M.178,1.949H0V.023H.16V.289A.658.658,0,0,1,.378.08.553.553,0,0,1,.669,0,.569.569,0,0,1,.928.059a.653.653,0,0,1,.205.158.724.724,0,0,1,.135.226.754.754,0,0,1,.049.265.829.829,0,0,1-.045.273.7.7,0,0,1-.127.225.612.612,0,0,1-.2.154.565.565,0,0,1-.25.056.542.542,0,0,1-.305-.087.7.7,0,0,1-.214-.221v.84ZM.626.158A.4.4,0,0,0,.484.185.57.57,0,0,0,.345.258a.5.5,0,0,0-.11.108A.288.288,0,0,0,.178.5V.915a.638.638,0,0,0,.08.136.555.555,0,0,0,.111.109A.5.5,0,0,0,.5,1.232a.4.4,0,0,0,.147.026.429.429,0,0,0,.2-.047A.5.5,0,0,0,1,1.087.561.561,0,0,0,1.1.911a.616.616,0,0,0,.034-.2A.565.565,0,0,0,1.1.5.582.582,0,0,0,.988.322.493.493,0,0,0,.827.2.444.444,0,0,0,.626.158Z" transform="translate(62.993 19.949)" fill="#fff"/>
    <path id="Fill_1376" data-name="Fill 1376" d="M.684,1.416A.667.667,0,0,1,.41,1.36a.678.678,0,0,1-.216-.155A.7.7,0,0,1,.051.978.738.738,0,0,1,0,.7.718.718,0,0,1,.051.431.7.7,0,0,1,.193.209.678.678,0,0,1,.409.057.664.664,0,0,1,.681,0,.656.656,0,0,1,.956.057.648.648,0,0,1,1.169.21.717.717,0,0,1,1.358.7V.743a.106.106,0,0,1,0,.029H.186a.594.594,0,0,0,.051.2.569.569,0,0,0,.112.161A.517.517,0,0,0,.5,1.242a.476.476,0,0,0,.319.019.53.53,0,0,0,.121-.049.438.438,0,0,0,.1-.077.333.333,0,0,0,.067-.1l.155.042a.454.454,0,0,1-.089.138.653.653,0,0,1-.133.107.682.682,0,0,1-.168.071A.749.749,0,0,1,.684,1.416ZM.684.14A.488.488,0,0,0,.339.278.516.516,0,0,0,.232.436a.6.6,0,0,0-.049.2h1A.549.549,0,0,0,1.027.278a.5.5,0,0,0-.155-.1A.488.488,0,0,0,.684.14Z" transform="translate(64.727 19.949)" fill="#fff"/>
    <path id="Fill_1377" data-name="Fill 1377" d="M.682.165a.561.561,0,0,0-.315.1.5.5,0,0,0-.189.26v.849H0V.008H.168V.336a.62.62,0,0,1,.2-.246A.474.474,0,0,1,.648,0,.174.174,0,0,1,.682,0Z" transform="translate(66.57 19.965)" fill="#fff"/>
    <path id="Fill_1379" data-name="Fill 1379" d="M.787,1.762l-.046.021c-.02.009-.043.018-.07.026a.785.785,0,0,1-.089.024.513.513,0,0,1-.1.01.382.382,0,0,1-.11-.016.261.261,0,0,1-.092-.049A.237.237,0,0,1,.213,1.7a.264.264,0,0,1-.024-.115V.6H0V.462H.189V0H.367V.462H.682V.6H.367v.928a.142.142,0,0,0,.054.112.184.184,0,0,0,.111.035.336.336,0,0,0,.134-.025.578.578,0,0,0,.073-.035Z" transform="translate(68.35 19.511)" fill="#fff"/>
    <path id="Fill_1380" data-name="Fill 1380" d="M.236,1.786l.041,0H.315a.176.176,0,0,0,.075-.013A.138.138,0,0,0,.443,1.72.915.915,0,0,0,.5,1.592Q.535,1.508.6,1.366L0,0H.183L.689,1.2,1.159,0h.17L.621,1.762a.322.322,0,0,1-.1.133.275.275,0,0,1-.182.056H.294L.236,1.943Z" transform="translate(69.412 19.972)" fill="#fff"/>
    <path id="Fill_1381" data-name="Fill 1381" d="M.007.257H.162V0H.007Z" transform="translate(71.041 21.082)" fill="#fff"/>
  </g>
</svg>
