<svg id="Group_36" data-name="Group 36" xmlns="http://www.w3.org/2000/svg" width="57" height="43.641" viewBox="0 0 57 43.641">
  <g id="Group_35" data-name="Group 35">
    <path id="Path_76" data-name="Path 76" d="M51.99,0H5.01A5.015,5.015,0,0,0,0,5.01V38.631a5.015,5.015,0,0,0,5.01,5.01H51.99A5.015,5.015,0,0,0,57,38.631V5.01A5.015,5.015,0,0,0,51.99,0ZM46.98,31.729a1.67,1.67,0,0,1-2.29,1.551,13.78,13.78,0,0,0-13.708,2.032c-1.481,1.184-1.7,1.427-2.371,1.427s-.9-.247-2.371-1.427a13.786,13.786,0,0,0-13.708-2.032,1.692,1.692,0,0,1-1.556-.168,1.673,1.673,0,0,1-.734-1.383V9.444a1.671,1.671,0,0,1,1.05-1.551,17.147,17.147,0,0,1,17.319,2.751A17.16,17.16,0,0,1,45.93,7.893a1.671,1.671,0,0,1,1.05,1.551V31.729Z" fill="#f2be22"/>
  </g>
</svg>
