<svg xmlns="http://www.w3.org/2000/svg" width="88" height="88" viewBox="0 0 88 88">
  <g id="Group_Icon" data-name="Group Icon" transform="translate(-144.188 -1045)">
    <g id="Group_7710" data-name="Group 7710" transform="translate(144.188 1045)">
      <circle id="Ellipse_350" data-name="Ellipse 350" cx="44" cy="44" r="44" fill="#f4f7f8"/>
    </g>
    <g id="_018-target" data-name="018-target" transform="translate(165.188 1059.994)">
      <path id="Path_12" data-name="Path 12" d="M31,34.961a4,4,0,0,1-8,0A4,4,0,0,1,31,34.961Z" transform="translate(-4.2 -5.793)" fill="#f2be22"/>
      <path id="Path_13" data-name="Path 13" d="M26.8,39.561a4.8,4.8,0,1,1,4.8-4.8A4.805,4.805,0,0,1,26.8,39.561Zm0-8a3.2,3.2,0,0,0,0,6.4A3.2,3.2,0,0,0,26.8,31.561Z" transform="translate(-4 -5.593)" fill="#f2be22"/>
      <path id="Path_14" data-name="Path 14" d="M2.8,17.152a.8.8,0,0,1-.8-.8v-5.6a.8.8,0,0,1,.8-.8H8.4a.8.8,0,0,1,0,1.6H3.6v4.8a.8.8,0,0,1-.8.8Z" transform="translate(0 -1.585)" fill="#761c33"/>
      <path id="Path_15" data-name="Path 15" d="M8.4,60.155H2.8a.8.8,0,0,1-.8-.8v-5.6a.8.8,0,0,1,1.6,0v4.8H8.4A.8.8,0,0,1,8.4,60.155Z" transform="translate(0 -10.187)" fill="#761c33"/>
      <path id="Path_16" data-name="Path 16" d="M51.4,60.155H45.8a.8.8,0,0,1,0-1.6h4.8v-4.8a.8.8,0,0,1,1.6,0v5.6A.8.8,0,0,1,51.4,60.155Z" transform="translate(-8.602 -10.187)" fill="#761c33"/>
      <path id="Path_17" data-name="Path 17" d="M27.874,31.052a.806.806,0,0,1-.566-1.366l22-22A.8.8,0,0,1,50.44,8.817l-22,22a.8.8,0,0,1-.566.234Z" transform="translate(-5.015 -1.084)" fill="#761c33"/>
      <path id="Path_18" data-name="Path 18" d="M45.76,22.318l-6.223-.566L50.486,10.8l6.223.566Z" transform="translate(-7.507 -1.755)" fill="#f2be22"/>
      <path id="Path_19" data-name="Path 19" d="M57.262,10.9a.8.8,0,0,0-.68-.528l-5.56-.5c-.391-.028-1-.184-1.3.168l-.264.264v.008l-2.128,2.128h-.008c-.26.262-1.108,1.12-1.36,1.36V13.8a.007.007,0,0,1-.008.008l-.1.1v.008l-2.112,2.1v.008l-1.008,1.008h-.008c-.084.085-.37.384-.456.456V17.5l-3.488,3.488a.809.809,0,0,0,.576,1.368l6.136.56h.08a.787.787,0,0,0,.56-.232L57.078,11.74a.817.817,0,0,0,.184-.84Zm-8.2,6.584c-.873.881-2.9,2.913-3.8,3.808l-4.152-.384c2.9-2.9,6.6-6.591,9.48-9.472l4.144.376Z" transform="translate(-7.308 -1.556)" fill="#761c33"/>
      <path id="Path_20" data-name="Path 20" d="M52.765,16.669l-2.112,2.112L46.5,18.4l2.12-2.112Z" transform="translate(-8.899 -2.853)" fill="#761c33"/>
      <path id="Path_21" data-name="Path 21" d="M38.83,13.974,39.4,20.2,50.344,9.249l-.566-6.223Z" transform="translate(-7.365 -0.2)" fill="#f2be22"/>
      <g id="Group_4" data-name="Group 4" transform="translate(2.012 2.027)">
        <path id="Path_22" data-name="Path 22" d="M50.878,8.312l-.5-5.56a.8.8,0,0,0-1.36-.488c-1.821,1.829-5.107,5.092-6.984,6.984a.023.023,0,0,0-.016.008l-.336.336-3.616,3.616a.819.819,0,0,0-.232.64l.568,6.224a.8.8,0,0,0,1.36.488C43.02,17.284,47.5,12.838,50.71,9.616c.355-.3.194-.91.168-1.3Zm-1.568.44-3.5,3.5a.007.007,0,0,1-.008.008l-5.968,5.968-.376-4.152L48.934,4.6c0,.008.377,4.145.376,4.152Z" transform="translate(-9.177 -2.027)" fill="#761c33"/>
        <path id="Path_23" data-name="Path 23" d="M47.049,13.9c0,.008-2.112,2.112-2.112,2.112l-.376-4.144,2.112-2.112Z" transform="translate(-10.523 -3.572)" fill="#761c33"/>
        <path id="Path_24" data-name="Path 24" d="M55.526,15.686a.807.807,0,0,1-.872.728l-1.648-.152-4.144-.376c-.046-.008-.46-.034-.5-.056a.807.807,0,0,1-.584-1.128c.263-.587.949-.441,1.464-.392.7.073,4.458.4,5.24.472C55.049,14.775,55.569,15.052,55.526,15.686Z" transform="translate(-11.152 -4.473)" fill="#761c33"/>
        <path id="Path_25" data-name="Path 25" d="M49.16,13.419a.8.8,0,0,1-1.576.216c-.164-1.431-.445-4.9-.584-6.3a.8.8,0,0,1,1.6-.144C48.7,8.325,49.05,12.214,49.16,13.419Z" transform="translate(-11.011 -2.918)" fill="#761c33"/>
        <path id="Path_26" data-name="Path 26" d="M51.047,20.171a.813.813,0,0,1-.872.72l-1.64-.152-4.16-.376c-.324-.027-.739-.03-.952-.312a.8.8,0,0,1,.672-1.32c.4.04,1.343.125,1.752.16L50,19.267c.556-.008,1.1.27,1.048.9Z" transform="translate(-10.257 -5.367)" fill="#761c33"/>
        <path id="Path_27" data-name="Path 27" d="M44.683,17.907a.8.8,0,0,1-1.368.624,1.155,1.155,0,0,1-.256-.8s-.374-4.148-.376-4.152c.008-.339-.294-1.977-.064-2.2a.8.8,0,0,1,1.5.3C44.222,12.835,44.567,16.684,44.683,17.907Z" transform="translate(-10.118 -3.814)" fill="#761c33"/>
        <path id="Path_28" data-name="Path 28" d="M42.816,31.573a.8.8,0,0,0,0-1.6H41.177a18.165,18.165,0,0,0-1.289-6.032,2.362,2.362,0,0,1-1.488.616,16.6,16.6,0,0,1,1.176,5.416H35.989a13.1,13.1,0,0,0-1.725-5.76l-.992-.088a12.249,12.249,0,0,1,1.915,5.848h-1.2a11.062,11.062,0,0,0-1.723-5.2l-2.336,2.336a7.92,7.92,0,0,1,.84,2.864H29.215a.8.8,0,0,0,0,1.6h1.559a8.019,8.019,0,0,1-7.16,7.16V37.173a.8.8,0,1,0-1.6,0v1.559a8.019,8.019,0,0,1-7.16-7.16h1.559a.8.8,0,0,0,0-1.6H14.856a8.019,8.019,0,0,1,7.16-7.16v1.559a.8.8,0,1,0,1.6,0v-1.55a7.958,7.958,0,0,1,2.936.878l2.336-2.336A11.1,11.1,0,0,0,23.615,19.6V18.4a12.323,12.323,0,0,1,5.9,1.947l-.088-.992A13.06,13.06,0,0,0,23.615,17.6V14.012A16.679,16.679,0,0,1,29.087,15.2a2.361,2.361,0,0,1,.648-1.464,18.086,18.086,0,0,0-6.12-1.321V10.773a.8.8,0,1,0-1.6,0v1.62a18.424,18.424,0,0,0-17.58,17.58H2.815a.8.8,0,0,0,0,1.6h1.62a18.424,18.424,0,0,0,17.58,17.58v1.62a.8.8,0,1,0,1.6,0v-1.62A18.424,18.424,0,0,0,41.2,31.573h1.62Zm-20.8-11.96a11.2,11.2,0,0,0-10.36,10.36h-1.2a12.4,12.4,0,0,1,11.56-11.56Zm0-5.6v3.6a13.2,13.2,0,0,0-12.36,12.36h-3.6a16.794,16.794,0,0,1,15.96-15.96Zm0,33.52a16.794,16.794,0,0,1-15.96-15.96h3.6a13.2,13.2,0,0,0,12.36,12.36Zm0-4.4a12.4,12.4,0,0,1-11.56-11.56h1.2a11.2,11.2,0,0,0,10.36,10.36Zm1.6-1.2a11.2,11.2,0,0,0,10.36-10.36h1.2a12.4,12.4,0,0,1-11.56,11.56Zm0,5.6v-3.6a13.2,13.2,0,0,0,12.36-12.36h3.6A16.794,16.794,0,0,1,23.615,47.533Z" transform="translate(-2.015 -3.616)" fill="#761c33"/>
      </g>
    </g>
  </g>
</svg>
