<svg xmlns="http://www.w3.org/2000/svg" width="75.762" height="81.504" viewBox="0 0 75.762 81.504">
  <g id="Group_122" data-name="Group 122" transform="translate(-187.119 -185.496)">
    <g id="Group_118" data-name="Group 118" transform="translate(187.119 185.496)">
      <path id="Path_127" data-name="Path 127" d="M271.04,463.571a3.076,3.076,0,0,0,3.089,3.089h2.059a5.558,5.558,0,0,0,5.491,4.891h3a5.558,5.558,0,0,0,5.491-4.891h2.059a3.076,3.076,0,0,0,3.089-3.089V458.08H271.041Z" transform="translate(-245.255 -390.046)" fill="#fff"/>
      <path id="Path_128" data-name="Path 128" d="M225.844,130.48a22.591,22.591,0,0,0-22.564,22.563,22.2,22.2,0,0,0,.686,5.405c.772,3.518,2.145,6.434,4.461,10.467,1.63,2.831,3.089,3.947,4.032,5.233h26.767c.944-1.373,2.4-2.4,4.032-5.233,2.317-4.032,3.689-6.949,4.461-10.467a22.2,22.2,0,0,0,.686-5.405,22.646,22.646,0,0,0-22.563-22.563Z" transform="translate(-187.876 -112.635)" fill="#fff"/>
      <path id="Path_129" data-name="Path 129" d="M334.824,24.463a2.711,2.711,0,0,0,2.746-2.746V16.742a2.746,2.746,0,1,0-5.491,0v4.976a2.822,2.822,0,0,0,2.746,2.746Z" transform="translate(-296.942 -13.996)" fill="#fff"/>
      <path id="Path_130" data-name="Path 130" d="M239.322,41.1a2.784,2.784,0,0,0,2.488,1.716,4.286,4.286,0,0,0,1.029-.172,2.745,2.745,0,0,0,1.458-3.6l-1.887-4.633a2.749,2.749,0,0,0-5.062,2.145Z" transform="translate(-216.54 -29.862)" fill="#fff"/>
      <path id="Path_131" data-name="Path 131" d="M165.511,91.09l-3.518-3.518a2.73,2.73,0,1,0-3.861,3.861l3.518,3.518a2.693,2.693,0,0,0,3.775,0,2.72,2.72,0,0,0,.086-3.861Z" transform="translate(-148.992 -75.646)" fill="#fff"/>
      <path id="Path_132" data-name="Path 132" d="M111.189,169.239l-4.632-1.887a2.749,2.749,0,1,0-2.145,5.062l4.633,1.887a2.174,2.174,0,0,0,1.029.172,2.652,2.652,0,0,0,2.488-1.716,2.549,2.549,0,0,0-1.372-3.518Z" transform="translate(-102.735 -143.672)" fill="#fff"/>
      <path id="Path_133" data-name="Path 133" d="M541.048,169.37a2.745,2.745,0,0,0-3.6-1.458l-4.632,1.887a2.745,2.745,0,0,0-1.458,3.6,2.784,2.784,0,0,0,2.488,1.716,4.288,4.288,0,0,0,1.029-.172l4.632-1.887a2.867,2.867,0,0,0,1.545-3.689Z" transform="translate(-465.504 -144.147)" fill="#fff"/>
      <path id="Path_134" data-name="Path 134" d="M493.111,88.131a2.8,2.8,0,0,0-3.861,0l-3.518,3.518a2.8,2.8,0,0,0,0,3.861,2.693,2.693,0,0,0,3.775,0l3.518-3.518a2.721,2.721,0,0,0,.086-3.861Z" transform="translate(-426.403 -76.12)" fill="#fff"/>
      <path id="Path_135" data-name="Path 135" d="M416.308,42.176a2.174,2.174,0,0,0,1.029.172,2.652,2.652,0,0,0,2.488-1.716L421.712,36a2.749,2.749,0,0,0-5.062-2.145l-1.887,4.633a3.009,3.009,0,0,0,1.545,3.689Z" transform="translate(-366.844 -29.392)" fill="#fff"/>
    </g>
    <text id="_5" data-name="5" transform="translate(214.531 238.147)" fill="#8d8582" font-size="41" font-family="Tajawal-Bold, Tajawal" font-weight="700"><tspan x="0" y="0">5</tspan></text>
  </g>
</svg>
