<svg id="group" xmlns="http://www.w3.org/2000/svg" width="25.935" height="22" viewBox="0 0 25.935 22">
  <path id="Path" d="M2.006,0H0A5.217,5.217,0,0,1,.316,1.793v7.58a2.235,2.235,0,0,1-.129.749H3.5A2.249,2.249,0,0,0,5.749,7.876V3.744A3.748,3.748,0,0,0,2.006,0Z" transform="translate(20.185 11.877)" fill="#761c33"/>
  <path id="Path-2" data-name="Path" d="M5.433,1.793A5.217,5.217,0,0,1,5.75,0H3.744A3.748,3.748,0,0,0,0,3.744V7.876a2.249,2.249,0,0,0,2.246,2.246H5.562a2.236,2.236,0,0,1-.129-.749Z" transform="translate(0 11.877)" fill="#761c33"/>
  <path id="Path-3" data-name="Path" d="M8.329,0H3.744A3.748,3.748,0,0,0,0,3.744v7.58a.749.749,0,0,0,.749.749H11.324a.749.749,0,0,0,.749-.749V3.744A3.748,3.748,0,0,0,8.329,0Z" transform="translate(6.931 9.927)" fill="#761c33"/>
  <path id="Path-4" data-name="Path" d="M4.5,0A4.5,4.5,0,1,0,9,4.5,4.508,4.508,0,0,0,4.5,0Z" transform="translate(8.465)" fill="#761c33"/>
  <path id="Path-5" data-name="Path" d="M3.367,0A3.366,3.366,0,1,0,6.734,3.367,3.371,3.371,0,0,0,3.367,0Z" transform="translate(1.694 4.197)" fill="#761c33"/>
  <path id="Path-6" data-name="Path" d="M3.367,0A3.367,3.367,0,1,0,6.734,3.367,3.371,3.371,0,0,0,3.367,0Z" transform="translate(17.506 4.197)" fill="#761c33"/>
</svg>
