<svg xmlns="http://www.w3.org/2000/svg" width="23.094" height="17" viewBox="0 0 23.094 17">
  <g id="homework" transform="translate(-1.045 -9.449)">
    <g id="Group_23" data-name="Group 23" transform="translate(2.904 11.27)">
      <path id="Path_66" data-name="Path 66" d="M27.039,14.5h-.613V26.686a1.092,1.092,0,0,1-.361.793,1.145,1.145,0,0,1-.721.288c-.036,0-5.228-.433-8.184.577a.875.875,0,0,1-.361.072.669.669,0,0,1-.361-.072,18.566,18.566,0,0,0-5.7-.721,22.054,22.054,0,0,0-2.38.108.923.923,0,0,1-.829-.288,1.092,1.092,0,0,1-.361-.793V20.737c-.288-.361-.613-.721-.973-1.118v9.7a.361.361,0,0,0,.361.361H27.112a.383.383,0,0,0,.324-.361V14.9A.426.426,0,0,0,27.039,14.5Z" transform="translate(-6.2 -14.5)" fill="#a8a8a8"/>
    </g>
    <g id="Group_24" data-name="Group 24" transform="translate(15.487 12.82)">
      <path id="Path_67" data-name="Path 67" d="M41.1,18.8h4.579v1.839H41.1Z" transform="translate(-41.1 -18.8)" fill="#a8a8a8"/>
    </g>
    <g id="Group_25" data-name="Group 25" transform="translate(4.526 9.449)">
      <path id="Path_68" data-name="Path 68" d="M16.216,19.2c0,.036.829,2.235.793,2.091a1.064,1.064,0,0,1-.324,1.19,1.088,1.088,0,0,1-1.262.108L13.512,21.51a2,2,0,0,1-.288-.216c-1.154-1.334-1.875-2.163-2.524-2.956v5.12a.372.372,0,0,0,.4.4,23.567,23.567,0,0,1,8.4.649h.108c.108,0,.108-.036.108-.036,3.1-1.082,7.9-.685,8.4-.649a.372.372,0,0,0,.4-.4V10.152a.383.383,0,0,0-.324-.361c-2.884-.288-5.913-.685-8.581.288-2.668-.973-5.7-.613-8.581-.288a.383.383,0,0,0-.324.361v2.6L16,18.914A.756.756,0,0,1,16.216,19.2Zm4.723-6.742A.341.341,0,0,1,21.3,12.1h5.3a.361.361,0,0,1,.361.361v2.56a.361.361,0,0,1-.361.361H21.3a.341.341,0,0,1-.361-.361Zm.361,4.759h5.3a.361.361,0,0,1,.361.361.388.388,0,0,1-.361.361H21.3a.361.361,0,0,1,0-.721Zm0,2.56h5.3a.388.388,0,0,1,.361.361.361.361,0,0,1-.361.361H21.3a.341.341,0,0,1-.361-.361A.361.361,0,0,1,21.3,19.779ZM12.358,12.46a.361.361,0,0,1,.361-.361h5.3a.341.341,0,0,1,.361.361.388.388,0,0,1-.361.361h-5.3A.388.388,0,0,1,12.358,12.46Zm1.154,2.56a.361.361,0,0,1,.361-.361h4.146a.361.361,0,0,1,.361.361.341.341,0,0,1-.361.361H13.873A.361.361,0,0,1,13.512,15.02Z" transform="translate(-10.7 -9.449)" fill="#a8a8a8"/>
    </g>
    <g id="Group_26" data-name="Group 26" transform="translate(7.951 19.743)">
      <path id="Path_69" data-name="Path 69" d="M22.291,40.2a.407.407,0,0,0,.108-.4L21.714,38,20.2,39.3l1.695.973A.408.408,0,0,0,22.291,40.2Z" transform="translate(-20.2 -38)" fill="#a8a8a8"/>
    </g>
    <g id="Group_27" data-name="Group 27" transform="translate(2.651 13.578)">
      <path id="Path_70" data-name="Path 70" d="M11.918,26.416c-1.406-1.659-3.137-3.678-4.723-5.516L5.5,22.342c1.947,2.271,2.524,2.92,4.723,5.516Z" transform="translate(-5.5 -20.9)" fill="#a8a8a8"/>
    </g>
    <g id="Group_28" data-name="Group 28" transform="translate(1.045 11.631)">
      <path id="Path_71" data-name="Path 71" d="M2.8,15.644a.581.581,0,0,0-.252-.144.521.521,0,0,0-.252.072l-1.118.973a.35.35,0,0,0-.036.5c.4.469.757.865,1.082,1.262L3.877,16.87C3.481,16.473,3.12,16.041,2.8,15.644Z" transform="translate(-1.045 -15.5)" fill="#a8a8a8"/>
    </g>
  </g>
</svg>
