<svg xmlns="http://www.w3.org/2000/svg" width="60" height="44.166" viewBox="0 0 60 44.166">
  <g id="homework1" transform="translate(-1.045 -9.449)">
    <g id="Group_23" data-name="Group 23" transform="translate(5.874 14.18)">
      <path id="Path_66" data-name="Path 66" d="M60.341,14.5H58.749V46.16a2.838,2.838,0,0,1-.937,2.061,2.975,2.975,0,0,1-1.873.749c-.094,0-13.582-1.124-21.263,1.5a2.273,2.273,0,0,1-.937.187,1.737,1.737,0,0,1-.937-.187C29.336,49.252,24,48.6,18,48.6a57.3,57.3,0,0,0-6.182.281,2.4,2.4,0,0,1-2.154-.749,2.838,2.838,0,0,1-.937-2.061V30.7c-.749-.937-1.592-1.873-2.529-2.9V53a.939.939,0,0,0,.937.937H60.529A1,1,0,0,0,61.372,53V15.53A1.107,1.107,0,0,0,60.341,14.5Z" transform="translate(-6.2 -14.5)" fill="#f2be22"/>
    </g>
    <g id="Group_24" data-name="Group 24" transform="translate(38.565 18.208)">
      <path id="Path_67" data-name="Path 67" d="M41.1,18.8H53v4.777H41.1Z" transform="translate(-41.1 -18.8)" fill="#f2be22"/>
    </g>
    <g id="Group_25" data-name="Group 25" transform="translate(10.089 9.449)">
      <path id="Path_68" data-name="Path 68" d="M25.031,34.788c0,.094,2.154,5.808,2.061,5.433a2.765,2.765,0,0,1-.843,3.091,2.827,2.827,0,0,1-3.278.281l-4.965-2.81a5.2,5.2,0,0,1-.749-.562c-3-3.466-4.871-5.62-6.557-7.681v13.3a.967.967,0,0,0,1.03,1.03c4.215-.468,15.081-.656,21.825,1.686h.281c.281,0,.281-.094.281-.094,8.056-2.81,20.514-1.78,21.825-1.686a.967.967,0,0,0,1.03-1.03V11.276a1,1,0,0,0-.843-.937c-7.494-.749-15.362-1.78-22.293.749C26.9,8.56,19.037,9.5,11.543,10.34a1,1,0,0,0-.843.937v6.744c4.59,5.339,9.742,11.334,13.769,16.018A1.964,1.964,0,0,1,25.031,34.788ZM37.3,17.271a.885.885,0,0,1,.937-.937h13.77a.939.939,0,0,1,.937.937v6.651a.939.939,0,0,1-.937.937H38.239a.885.885,0,0,1-.937-.937Zm.937,12.364h13.77a.939.939,0,0,1,.937.937,1.007,1.007,0,0,1-.937.937H38.239a.937.937,0,0,1,0-1.873Zm0,6.651h13.77a1.007,1.007,0,0,1,.937.937.939.939,0,0,1-.937.937H38.239a.885.885,0,0,1-.937-.937A.939.939,0,0,1,38.239,36.286ZM15.009,17.271a.939.939,0,0,1,.937-.937H29.715a.885.885,0,0,1,.937.937,1.007,1.007,0,0,1-.937.937H15.945A1.007,1.007,0,0,1,15.009,17.271Zm3,6.651a.939.939,0,0,1,.937-.937H29.715a.939.939,0,0,1,.937.937.885.885,0,0,1-.937.937H18.943A.939.939,0,0,1,18.006,23.922Z" transform="translate(-10.7 -9.449)" fill="#f2be22"/>
    </g>
    <g id="Group_26" data-name="Group 26" transform="translate(18.988 36.193)">
      <path id="Path_69" data-name="Path 69" d="M25.633,43.714a1.057,1.057,0,0,0,.281-1.031L24.134,38,20.2,41.372,24.6,43.9A1.059,1.059,0,0,0,25.633,43.714Z" transform="translate(-20.2 -38)" fill="#f2be22"/>
    </g>
    <g id="Group_27" data-name="Group 27" transform="translate(5.218 20.175)">
      <path id="Path_70" data-name="Path 70" d="M22.173,35.232C18.52,30.923,14.024,25.677,9.9,20.9L5.5,24.647c5.058,5.9,6.557,7.587,12.271,14.332Z" transform="translate(-5.5 -20.9)" fill="#f2be22"/>
    </g>
    <g id="Group_28" data-name="Group 28" transform="translate(1.045 15.117)">
      <path id="Path_71" data-name="Path 71" d="M5.593,15.875a1.51,1.51,0,0,0-.656-.375,1.354,1.354,0,0,0-.656.187l-2.9,2.529a.911.911,0,0,0-.094,1.311c1.03,1.218,1.967,2.248,2.81,3.278L8.4,19.059C7.372,18.029,6.436,16.905,5.593,15.875Z" transform="translate(-1.045 -15.5)" fill="#f2be22"/>
    </g>
  </g>
</svg>
