<svg xmlns="http://www.w3.org/2000/svg" width="16" height="16" viewBox="0 0 16 16">
  <path id="Icon_color" data-name="Icon color" d="M8,16a1.6,1.6,0,0,1-1.6-1.6H9.6A1.6,1.6,0,0,1,8,16Zm5.6-3.2H2.4a.8.8,0,0,1-.8-.8v-.472a.806.806,0,0,1,.232-.56L2.5,10.3a2.417,2.417,0,0,0,.7-1.7V6.4a4.828,4.828,0,0,1,.96-2.88l.72-.96A2.411,2.411,0,0,1,6.8,1.6h.4V.4A.4.4,0,0,1,7.6,0h.8a.4.4,0,0,1,.4.4V1.6h.4a2.411,2.411,0,0,1,1.92.96l.72.96A4.828,4.828,0,0,1,12.8,6.4V8.608a2.417,2.417,0,0,0,.7,1.7l.664.664a.806.806,0,0,1,.232.56V12A.8.8,0,0,1,13.6,12.8Zm1.992-6.4h-.8a.4.4,0,0,1-.392-.384,6.471,6.471,0,0,0-1.312-3.448.29.29,0,0,1,.048-.4l.8-.624a.358.358,0,0,1,.216-.073h.031A.306.306,0,0,1,14.4,1.6,8.083,8.083,0,0,1,16,5.976a.438.438,0,0,1-.12.3.4.4,0,0,1-.288.128ZM1.2,6.4H.4a.386.386,0,0,1-.288-.128A.375.375,0,0,1,0,5.976,8.011,8.011,0,0,1,1.6,1.6a.3.3,0,0,1,.184-.128l.035,0a.32.32,0,0,1,.205.074l.8.624a.289.289,0,0,1,.048.4A6.48,6.48,0,0,0,1.6,6.016.41.41,0,0,1,1.2,6.4Z" transform="translate(0)" fill="#ce7847"/>
</svg>
