<svg id="instagram" xmlns="http://www.w3.org/2000/svg" width="30" height="30" viewBox="0 0 30 30">
  <circle id="Oval_Copy_2" data-name="Oval Copy 2" cx="15" cy="15" r="15" transform="translate(0)" fill="#761c33"/>
  <g id="instagram-2" transform="translate(9.429 9.429)">
    <path id="Shape" d="M8.305,11.388H3.083A3.086,3.086,0,0,1,0,8.305V3.082A3.086,3.086,0,0,1,3.083,0H8.305a3.086,3.086,0,0,1,3.082,3.083V8.305A3.086,3.086,0,0,1,8.305,11.388ZM5.694,2.58A3.114,3.114,0,1,0,8.808,5.693,3.117,3.117,0,0,0,5.694,2.58ZM8.882,1.474a.92.92,0,1,0,.92.92A.921.921,0,0,0,8.882,1.474Z" fill="#fff"/>
    <path id="Path" d="M2.446,0A2.446,2.446,0,1,0,4.892,2.446,2.449,2.449,0,0,0,2.446,0Z" transform="translate(3.248 3.248)" fill="#fff"/>
    <path id="Path-2" data-name="Path" d="M.252,0A.252.252,0,1,0,.505.252.253.253,0,0,0,.252,0Z" transform="translate(8.63 2.142)" fill="#fff"/>
  </g>
</svg>
