<svg id="linked" xmlns="http://www.w3.org/2000/svg" width="30" height="30" viewBox="0 0 30 30">
  <circle id="Oval_Copy_3" data-name="Oval Copy 3" cx="15" cy="15" r="15" fill="#761c33"/>
  <g id="Group" transform="translate(8.571 8.571)">
    <rect id="Rectangle" width="2.669" height="8.016" transform="translate(0 3.966)" fill="#fff"/>
    <path id="Path" d="M7.288.918A2.873,2.873,0,0,0,5.064,0a3.206,3.206,0,0,0-.926.125,2.1,2.1,0,0,0-.7.352A3.451,3.451,0,0,0,2.977.9a3.472,3.472,0,0,0-.316.428V.186H0L.008.574Q.016.963.016,2.969T0,8.2H2.661V3.729a1.954,1.954,0,0,1,.089-.655,1.718,1.718,0,0,1,.514-.692A1.31,1.31,0,0,1,4.118,2.1a1.151,1.151,0,0,1,1.023.481,2.34,2.34,0,0,1,.328,1.331V8.2H8.13V3.608A3.851,3.851,0,0,0,7.288.918Z" transform="translate(3.966 3.966)" fill="#fff"/>
    <path id="Path-2" data-name="Path" d="M1.5,0A1.523,1.523,0,0,0,.417.392,1.3,1.3,0,0,0,0,1.383a1.326,1.326,0,0,0,.4.987,1.46,1.46,0,0,0,1.068.4h.016a1.524,1.524,0,0,0,1.1-.4,1.281,1.281,0,0,0,.408-.987A1.349,1.349,0,0,0,2.58.392,1.479,1.479,0,0,0,1.5,0Z" fill="#fff"/>
  </g>
</svg>
