<svg xmlns="http://www.w3.org/2000/svg" width="20.911" height="20.911" viewBox="0 0 20.911 20.911">
  <path id="noun-language-1631796_1_" data-name="noun-language-1631796 (1)" d="M127.125,46.668a10.455,10.455,0,1,0,10.455,10.455A10.455,10.455,0,0,0,127.125,46.668Zm7.233,6.273h-2.922a14.272,14.272,0,0,0-1.157-3.56,8.407,8.407,0,0,1,4.078,3.56Zm1.132,4.182a8.321,8.321,0,0,1-.275,2.091h-3.479c.062-.676.095-1.375.095-2.091s-.033-1.415-.095-2.091h3.479A8.328,8.328,0,0,1,135.49,57.124Zm-8.365,8.365c-.455,0-1.552-1.459-2.17-4.182H129.3c-.618,2.724-1.715,4.182-2.17,4.182Zm-2.507-6.273a20.565,20.565,0,0,1,0-4.182h5.015a20.583,20.583,0,0,1,0,4.182Zm-5.857-2.091a8.329,8.329,0,0,1,.275-2.091h3.479c-.062.676-.095,1.375-.095,2.091s.033,1.415.095,2.091h-3.479A8.329,8.329,0,0,1,118.761,57.124Zm8.365-8.365c.455,0,1.552,1.458,2.17,4.182h-4.341c.618-2.724,1.715-4.182,2.171-4.182Zm-3.154.622a14.263,14.263,0,0,0-1.157,3.56h-2.922a8.407,8.407,0,0,1,4.079-3.56Zm-4.079,11.924h2.922a14.26,14.26,0,0,0,1.157,3.56,8.406,8.406,0,0,1-4.078-3.56Zm10.387,3.56a14.266,14.266,0,0,0,1.157-3.56h2.922a8.406,8.406,0,0,1-4.078,3.56Z" transform="translate(-116.67 -46.668)" fill="#d0ad5b"/>
</svg>
