<svg xmlns="http://www.w3.org/2000/svg" width="40" height="43.881" viewBox="0 0 40 43.881">
  <g id="online-course" transform="translate(-35.286 -13.876)">
    <path id="Path_57" data-name="Path 57" d="M72.283,17.662H63.195L55.92,14.025a1.426,1.426,0,0,0-1.269,0l-7.274,3.637H38.289a3.006,3.006,0,0,0-3,3V46.247a3.006,3.006,0,0,0,3,3H50.247v6.695H47.02a.906.906,0,1,0,0,1.812H63.552a.906.906,0,0,0,0-1.812H60.325V49.25H72.283a3.006,3.006,0,0,0,3-3V20.665a3.006,3.006,0,0,0-3-3Zm1.19,28.585a1.192,1.192,0,0,1-1.19,1.19H38.289a1.192,1.192,0,0,1-1.19-1.19V45H73.474Zm-14.961,9.7H52.059V49.25h6.453ZM38.289,19.474h5.464l-.772.386a1.419,1.419,0,0,0,0,2.538l3.068,1.534v5.94a2.194,2.194,0,0,0,1.736,2.141,36.709,36.709,0,0,0,7.5.778,36.715,36.715,0,0,0,7.5-.778,2.194,2.194,0,0,0,1.736-2.141v-5.94l.883-.441v5.834a.906.906,0,1,0,1.812,0V22.585l.373-.186a1.419,1.419,0,0,0,0-2.538l-.772-.386h5.464a1.192,1.192,0,0,1,1.19,1.19V43.184H37.1V20.665a1.192,1.192,0,0,1,1.19-1.19ZM66.078,21.13l-10.792,5.4-10.792-5.4,10.792-5.4ZM47.861,24.839l6.791,3.4a1.426,1.426,0,0,0,1.269,0l6.791-3.4v5.034a.374.374,0,0,1-.294.367,34.744,34.744,0,0,1-14.263,0,.374.374,0,0,1-.294-.367V24.839Z" transform="translate(0)" fill="#761c33"/>
    <path id="Path_58" data-name="Path 58" d="M177.459,247.734h9.061a.906.906,0,1,0,0-1.812h-9.061a.906.906,0,1,0,0,1.812Z" transform="translate(-128.466 -211.019)" fill="#761c33"/>
    <path id="Path_59" data-name="Path 59" d="M112.447,247.734h1.812a.906.906,0,1,0,0-1.812h-1.812a.906.906,0,1,0,0,1.812Z" transform="translate(-69.345 -211.019)" fill="#761c33"/>
    <path id="Path_60" data-name="Path 60" d="M177.459,295.864h18.477a.906.906,0,1,0,0-1.812H177.459a.906.906,0,1,0,0,1.812Z" transform="translate(-128.466 -254.788)" fill="#761c33"/>
    <path id="Path_61" data-name="Path 61" d="M112.447,295.864h1.812a.906.906,0,1,0,0-1.812h-1.812a.906.906,0,1,0,0,1.812Z" transform="translate(-69.345 -254.788)" fill="#761c33"/>
  </g>
</svg>
