<svg id="podcast-solid" xmlns="http://www.w3.org/2000/svg" xmlns:xlink="http://www.w3.org/1999/xlink" width="22.75" height="26" viewBox="0 0 22.75 26">
  <defs>
    <linearGradient id="linear-gradient" x1="0.5" x2="0.5" y2="1" gradientUnits="objectBoundingBox">
      <stop offset="0" stop-color="#e086f8"/>
      <stop offset="1" stop-color="#9f47cd"/>
    </linearGradient>
  </defs>
  <path id="Shape" d="M9.172,24.809a36.7,36.7,0,0,1-1.047-6.744c0-1.784,1.58-2.222,3.25-2.222s3.25.436,3.25,2.225a37.041,37.041,0,0,1-1.047,6.745c-.261.965-1.244,1.187-2.2,1.187S9.436,25.777,9.172,24.809Zm7.059-5.939a8.94,8.94,0,1,0-9.71,0,27.072,27.072,0,0,0,.356,2.953,11.371,11.371,0,1,1,9,0A27.51,27.51,0,0,0,16.231,18.87Zm-12.168-7.5A7.313,7.313,0,1,1,15.994,17a3.265,3.265,0,0,0-1.628-1.779.142.142,0,0,0-.023,0,4.876,4.876,0,1,0-5.933,0c-.011,0-.025,0-.026,0A3.264,3.264,0,0,0,6.756,17,7.268,7.268,0,0,1,4.063,11.375Zm4.469,0a2.844,2.844,0,1,1,2.844,2.844A2.84,2.84,0,0,1,8.531,11.375Z" fill="url(#linear-gradient)"/>
</svg>
