<svg xmlns="http://www.w3.org/2000/svg" width="23.773" height="23.878" viewBox="0 0 23.773 23.878">
  <path id="smile" d="M0,11.939A11.886,11.886,0,1,1,11.886,23.878,11.926,11.926,0,0,1,0,11.939Zm1.033,0a10.853,10.853,0,1,0,10.853-10.9A10.889,10.889,0,0,0,1.033,11.939ZM6.79,15.123a.449.449,0,0,1,.04-.674.559.559,0,0,1,.739.037,6.2,6.2,0,0,0,8.635,0,.559.559,0,0,1,.739-.037.45.45,0,0,1,.04.674,7.148,7.148,0,0,1-5.1,2.069A7.149,7.149,0,0,1,6.79,15.123Zm7.474-5.094a1.427,1.427,0,1,1,1.426,1.433A1.431,1.431,0,0,1,14.263,10.029Zm.951,0a.475.475,0,1,0,.475-.478A.477.477,0,0,0,15.215,10.029Zm-8.558,0a1.427,1.427,0,1,1,1.426,1.433A1.431,1.431,0,0,1,6.656,10.029Zm.951,0a.475.475,0,1,0,.475-.478A.477.477,0,0,0,7.608,10.029Z" fill="#8f8d9a"/>
</svg>
