<svg id="soundcloud-brands" xmlns="http://www.w3.org/2000/svg" width="31.053" height="13.486" viewBox="0 0 31.053 13.486">
  <path id="Shape" d="M13.85,13.335a.364.364,0,0,1-.083-.228v-.015c-.15-3.169-.15-3.183-.15-3.183l.136-7.8.014-.083a.383.383,0,0,1,.175-.325.412.412,0,0,1,.213-.067.426.426,0,0,1,.213.067.435.435,0,0,1,.19.325l.16,7.9-.15,2.844-.015.325a.335.335,0,0,1-.121.272.394.394,0,0,1-.272.122A.416.416,0,0,1,13.85,13.335Zm-6.44-.107L7.2,9.939,7.41,3.63a.269.269,0,0,1,.272-.257.256.256,0,0,1,.257.257L8.2,9.939l-.257,3.289a.256.256,0,0,1-.257.257A.269.269,0,0,1,7.41,13.228Zm5.057-.121-.16-3.184.16-6.633a.385.385,0,0,1,.378-.379.373.373,0,0,1,.365.379L13.4,9.923l-.189,3.184a.361.361,0,0,1-.365.364A.382.382,0,0,1,12.467,13.108Zm4.178.359a.458.458,0,0,1-.417-.447V.9c0-.233.082-.34.378-.446A6.614,6.614,0,0,1,19.047,0a6.744,6.744,0,0,1,6.711,6.134,3.9,3.9,0,0,1,1.485-.3,3.815,3.815,0,0,1,0,7.629Zm-5.44-.335-.189-3.223L11.2,3.033a.335.335,0,0,1,.67,0l.2,6.876-.2,3.223a.336.336,0,0,1-.335.335A.342.342,0,0,1,11.2,13.132Zm-1.272.023L9.744,9.909l.189-7.051a.329.329,0,0,1,.311-.325.343.343,0,0,1,.326.325l.213,7.051-.213,3.246a.33.33,0,0,1-.326.311A.326.326,0,0,1,9.933,13.155ZM6.2,13.224,5.959,9.909,6.2,4.784a.249.249,0,0,1,.242-.242.237.237,0,0,1,.229.242l.282,5.125-.282,3.315a.238.238,0,0,1-.229.243A.25.25,0,0,1,6.2,13.224Zm8.832-.189L14.951,11.5l-.082-1.577.16-8.574v-.04a.5.5,0,0,1,.16-.325.446.446,0,0,1,.272-.092.379.379,0,0,1,.2.067.47.47,0,0,1,.219.349l.189,8.614-.189,3.116a.421.421,0,0,1-.418.417A.443.443,0,0,1,15.034,13.035Zm-6.352.136L8.468,9.909l.213-6.823a.3.3,0,0,1,.282-.3.3.3,0,0,1,.3.3L9.5,9.909l-.242,3.262a.289.289,0,0,1-.578,0Zm-3.693.053L4.717,9.909l.272-3.154a.208.208,0,0,1,.2-.2.234.234,0,0,1,.214.2l.281,3.154-.281,3.315a.23.23,0,0,1-.214.213A.21.21,0,0,1,4.989,13.224ZM3.776,13.2l-.282-3.29.282-3.4a.171.171,0,0,1,.175-.175.193.193,0,0,1,.189.175l.311,3.4L4.139,13.2a.193.193,0,0,1-.189.175A.171.171,0,0,1,3.776,13.2Zm-1.213-.1L2.281,9.909l.282-3.3a.169.169,0,0,1,.16-.16.154.154,0,0,1,.15.16l.335,3.3L2.873,13.1a.151.151,0,0,1-.15.15A.175.175,0,0,1,2.562,13.1Zm-1.189-.471L1.063,9.909l.311-2.79A.12.12,0,0,1,1.495,7a.144.144,0,0,1,.136.122l.349,2.79-.349,2.737a.144.144,0,0,1-.136.122A.124.124,0,0,1,1.373,12.632ZM.228,11.607,0,9.909.228,8.182c.015-.068.054-.122.122-.122s.107.053.122.122L.743,9.909l-.272,1.7c-.014.068-.053.121-.122.121S.243,11.676.228,11.607Z" fill="#ff550d"/>
</svg>
