<svg xmlns="http://www.w3.org/2000/svg" width="25" height="25" viewBox="0 0 25 25">
  <g id="spotify-brands" transform="translate(-0.002 0.002)">
    <path id="Shape" d="M12.5,25A12.5,12.5,0,1,1,25,12.5,12.511,12.511,0,0,1,12.5,25ZM10.607,16.54a12.263,12.263,0,0,1,6.432,1.671.951.951,0,0,0,.537.183.763.763,0,0,0,.766-.777.847.847,0,0,0-.488-.832,13.855,13.855,0,0,0-7.229-1.871,22.073,22.073,0,0,0-4.719.55.8.8,0,0,0-.684.849.786.786,0,0,0,.795.794,2.078,2.078,0,0,0,.453-.094l.02-.005.127-.034A20.122,20.122,0,0,1,10.607,16.54Zm-.193-3.682a15.911,15.911,0,0,1,7.895,2.018l.045.024.029.016a1.11,1.11,0,0,0,.547.171.975.975,0,0,0,.977-.982,1.05,1.05,0,0,0-.564-.993,17.691,17.691,0,0,0-8.924-2.3A16.963,16.963,0,0,0,5.49,11.5a.994.994,0,0,0-.783,1.043.977.977,0,0,0,.977.977,1.331,1.331,0,0,0,.42-.077c.045-.014.107-.033.18-.051A15.726,15.726,0,0,1,10.414,12.858Zm.223-3.909h0a18.941,18.941,0,0,1,9.207,2.1,1.143,1.143,0,0,0,.65.2,1.229,1.229,0,0,0,.516-2.314,21.241,21.241,0,0,0-10.35-2.408A21.068,21.068,0,0,0,4.74,7.29a1.179,1.179,0,0,0-.877,1.2A1.154,1.154,0,0,0,5.035,9.682a2.065,2.065,0,0,0,.57-.105l.029-.009.049-.014A18.814,18.814,0,0,1,10.637,8.948Z" fill="#1db954"/>
  </g>
</svg>
