<svg xmlns="http://www.w3.org/2000/svg" width="13.47" height="16.135" viewBox="0 0 13.47 16.135">
  <path id="Stroke_3" data-name="Stroke 3" d="M11.61,8.931a33.56,33.56,0,0,1-8.388,5.722,8.963,8.963,0,0,1-1.494.481A1.134,1.134,0,0,1,.7,14.527a11.789,11.789,0,0,1-.374-1.55A37.36,37.36,0,0,1,0,7.57,35.154,35.154,0,0,1,.356,1.978C.419,1.627.6.82.657.689A1.12,1.12,0,0,1,1.166.136,1.112,1.112,0,0,1,1.728,0,7.853,7.853,0,0,1,3.022.4a33.259,33.259,0,0,1,8.566,5.778c.153.164.574.605.643.7a1.128,1.128,0,0,1,.025,1.355C12.182,8.33,11.752,8.78,11.61,8.931Z" transform="translate(0.5 0.5)" fill="none" stroke="#fff" stroke-linecap="round" stroke-linejoin="round" stroke-miterlimit="10" stroke-width="1"/>
</svg>
