<svg xmlns="http://www.w3.org/2000/svg" width="19.167" height="23" viewBox="0 0 19.167 23">
  <path id="text-format" d="M18.531,0H4.635A2.638,2.638,0,0,0,2,2.635V20.365A2.638,2.638,0,0,0,4.635,23h13.9a2.638,2.638,0,0,0,2.635-2.635V2.635A2.638,2.638,0,0,0,18.531,0ZM4.875,8.385a.719.719,0,0,1,.719-.719h5.271a.719.719,0,0,1,.719.719v.958a.719.719,0,0,1-1.437,0V9.1h-1.2v3.833a.719.719,0,0,1,0,1.438H7.51a.719.719,0,0,1,0-1.437V9.1h-1.2v.24a.719.719,0,0,1-1.437,0Zm12.7,11.74H5.594a.719.719,0,0,1,0-1.437H17.573a.719.719,0,0,1,0,1.438Zm0-2.875H5.594a.719.719,0,0,1,0-1.437H17.573a.719.719,0,0,1,0,1.438Zm0-2.875H14.219a.719.719,0,0,1,0-1.437h3.354a.719.719,0,0,1,0,1.438Zm0-2.635H14.219a.719.719,0,0,1,0-1.437h3.354a.719.719,0,0,1,0,1.438Zm0-2.635H14.219a.719.719,0,1,1,0-1.437h3.354a.719.719,0,1,1,0,1.437Z" transform="translate(-2)" fill="#a8a8a8"/>
</svg>
