<svg id="twitteremail" xmlns="http://www.w3.org/2000/svg" width="30" height="30" viewBox="0 0 30 30">
  <circle id="Oval_Copy" data-name="Oval Copy" cx="15" cy="15" r="15" transform="translate(0)" fill="#761c33"/>
  <path id="Path" d="M13.819,1.329a5.907,5.907,0,0,1-1.632.447A2.817,2.817,0,0,0,13.433.211a5.662,5.662,0,0,1-1.8.686,2.833,2.833,0,0,0-4.9,1.937A2.917,2.917,0,0,0,6.8,3.48,8.019,8.019,0,0,1,.962.516,2.834,2.834,0,0,0,1.833,4.3a2.8,2.8,0,0,1-1.28-.349v.031a2.846,2.846,0,0,0,2.27,2.784,2.828,2.828,0,0,1-.743.093,2.5,2.5,0,0,1-.536-.048A2.86,2.86,0,0,0,4.191,8.787,5.692,5.692,0,0,1,.678,10,5.306,5.306,0,0,1,0,9.957a7.976,7.976,0,0,0,4.346,1.271A8.008,8.008,0,0,0,12.41,3.166c0-.125,0-.246-.01-.366A5.652,5.652,0,0,0,13.819,1.329Z" transform="translate(7.714 9.429)" fill="#fff"/>
</svg>
