<svg xmlns="http://www.w3.org/2000/svg" width="20" height="18.792" viewBox="0 0 20 18.792">
  <path id="video-player" d="M20,10.611A1.611,1.611,0,0,0,18.389,9H1.611A1.611,1.611,0,0,0,0,10.611v15.57a1.611,1.611,0,0,0,1.611,1.611H18.389A1.611,1.611,0,0,0,20,26.181Zm-13.893.4H8.993V13.3H6.107ZM4.094,25.779H2.013V23.5H4.094Zm0-12.483H2.013V11.013H4.094Zm4.9,12.483H6.107V23.5H8.993Zm-.738-5.523V16.536c0-.554.394-.759.857-.455l2.7,1.763a.611.611,0,0,1,0,1.1L9.11,20.711C8.647,21.014,8.255,20.809,8.255,20.256Zm5.638,5.523H11.007V23.5h2.886Zm0-12.483H11.007V11.013h2.886Zm4.094,12.483H15.906V23.5h2.081Zm0-12.483H15.906V11.013h2.081Z" transform="translate(0 -9)" fill="#a8a8a8"/>
</svg>
